<svg width="81" height="86" viewBox="0 0 81 86" fill="none" xmlns="http://www.w3.org/2000/svg">
  <g clip-path="url(#clip0_6156_8403)">
    <path d="M4.27001 55.4199H0.0100098V59.6799H4.27001V55.4199Z" fill="#9E7B00"/>
    <path d="M8.53002 59.6799H4.27002V63.9399H8.53002V59.6799Z" fill="#9E7B00"/>
    <path d="M12.79 63.9399H8.53003V68.1999H12.79V63.9399Z" fill="#9E7B00"/>
    <path d="M17.06 68.2H12.79V72.46H17.06V68.2Z" fill="#9E7B00"/>
    <path d="M21.3201 72.46H17.0601V76.73H21.3201V72.46Z" fill="#9E7B00"/>
    <path d="M25.5801 76.73H21.3201V80.99H25.5801V76.73Z" fill="#9E7B00"/>
    <path d="M80.99 55.4199H76.73V59.6799H80.99V55.4199Z" fill="#9E7B00"/>
    <path d="M80.99 51.1499H76.73V55.4199H80.99V51.1499Z" fill="#9E7B00"/>
    <path d="M80.99 46.8899H76.73V51.1499H80.99V46.8899Z" fill="#9E7B00"/>
    <path d="M80.99 42.6299H76.73V46.8899H80.99V42.6299Z" fill="#9E7B00"/>
    <path d="M80.99 38.3701H76.73V42.6301H80.99V38.3701Z" fill="#9E7B00"/>
    <path d="M80.99 34.1001H76.73V38.3601H80.99V34.1001Z" fill="#9E7B00"/>
    <path d="M80.99 29.8401H76.73V34.1101H80.99V29.8401Z" fill="#9E7B00"/>
    <path d="M80.99 25.5701H76.73V29.8301H80.99V25.5701Z" fill="#9E7B00"/>
    <path d="M80.99 21.3101H76.73V25.5701H80.99V21.3101Z" fill="#9E7B00"/>
    <path d="M76.73 59.6799H72.47V63.9399H76.73V59.6799Z" fill="#9E7B00"/>
    <path d="M76.73 55.4199H72.47V59.6799H76.73V55.4199Z" fill="#9E7B00"/>
    <path d="M76.73 51.1499H72.47V55.4199H76.73V51.1499Z" fill="#9E7B00"/>
    <path d="M76.73 46.8899H72.47V51.1499H76.73V46.8899Z" fill="#9E7B00"/>
    <path d="M76.73 42.6299H72.47V46.8899H76.73V42.6299Z" fill="#9E7B00"/>
    <path d="M76.73 38.3701H72.47V42.6301H76.73V38.3701Z" fill="#9E7B00"/>
    <path d="M76.73 34.1001H72.47V38.3601H76.73V34.1001Z" fill="#9E7B00"/>
    <path d="M76.73 29.8401H72.47V34.1101H76.73V29.8401Z" fill="#9E7B00"/>
    <path d="M76.73 25.5701H72.47V29.8301H76.73V25.5701Z" fill="#9E7B00"/>
    <path d="M76.73 21.3101H72.47V25.5701H76.73V21.3101Z" fill="#9E7B00"/>
    <path d="M76.73 17.05H72.47V21.31H76.73V17.05Z" fill="#9E7B00"/>
    <path d="M72.47 63.9399H68.21V68.1999H72.47V63.9399Z" fill="#9E7B00"/>
    <path d="M72.47 59.6799H68.21V63.9399H72.47V59.6799Z" fill="#9E7B00"/>
    <path d="M72.47 55.4199H68.21V59.6799H72.47V55.4199Z" fill="#9E7B00"/>
    <path d="M72.47 51.1499H68.21V55.4199H72.47V51.1499Z" fill="#CEA000"/>
    <path d="M72.47 46.8899H68.21V51.1499H72.47V46.8899Z" fill="#CEA000"/>
    <path d="M72.47 42.6299H68.21V46.8899H72.47V42.6299Z" fill="#CEA000"/>
    <path d="M72.47 38.3701H68.21V42.6301H72.47V38.3701Z" fill="#CEA000"/>
    <path d="M72.47 34.1001H68.21V38.3601H72.47V34.1001Z" fill="#CEA000"/>
    <path d="M72.47 29.8401H68.21V34.1101H72.47V29.8401Z" fill="#CEA000"/>
    <path d="M72.47 25.5701H68.21V29.8301H72.47V25.5701Z" fill="#CEA000"/>
    <path d="M72.47 21.3101H68.21V25.5701H72.47V21.3101Z" fill="#CEA000"/>
    <path d="M72.47 17.05H68.21V21.31H72.47V17.05Z" fill="#9E7B00"/>
    <path d="M72.47 12.79H68.21V17.05H72.47V12.79Z" fill="#9E7B00"/>
    <path d="M68.2099 72.46H63.95V76.73H68.2099V72.46Z" fill="#9E7B00"/>
    <path d="M68.2099 68.2H63.95V72.46H68.2099V68.2Z" fill="#9E7B00"/>
    <path d="M68.2099 63.9399H63.95V68.1999H68.2099V63.9399Z" fill="#9E7B00"/>
    <path d="M68.2099 59.6799H63.95V63.9399H68.2099V59.6799Z" fill="#9E7B00"/>
    <path d="M68.2099 55.4199H63.95V59.6799H68.2099V55.4199Z" fill="#CEA000"/>
    <path d="M68.2099 51.1499H63.95V55.4199H68.2099V51.1499Z" fill="#E6BB29"/>
    <path d="M68.2099 46.8899H63.95V51.1499H68.2099V46.8899Z" fill="#E6BB29"/>
    <path d="M68.2099 42.6299H63.95V46.8899H68.2099V42.6299Z" fill="#E6BB29"/>
    <path d="M68.2099 38.3701H63.95V42.6301H68.2099V38.3701Z" fill="#E6BB29"/>
    <path d="M68.2099 34.1001H63.95V38.3601H68.2099V34.1001Z" fill="#E6BB29"/>
    <path d="M68.2099 29.8401H63.95V34.1101H68.2099V29.8401Z" fill="#E6BB29"/>
    <path d="M68.2099 25.5701H63.95V29.8301H68.2099V25.5701Z" fill="#E6BB29"/>
    <path d="M68.2099 21.3101H63.95V25.5701H68.2099V21.3101Z" fill="#E6BB29"/>
    <path d="M68.2099 17.05H63.95V21.31H68.2099V17.05Z" fill="#CEA000"/>
    <path d="M68.2099 12.79H63.95V17.05H68.2099V12.79Z" fill="#9E7B00"/>
    <path d="M68.2099 8.52002H63.95V12.79H68.2099V8.52002Z" fill="#9E7B00"/>
    <path d="M63.9499 76.73H59.6899V80.99H63.9499V76.73Z" fill="#9E7B00"/>
    <path d="M63.9499 72.46H59.6899V76.73H63.9499V72.46Z" fill="#9E7B00"/>
    <path d="M63.9499 68.2H59.6899V72.46H63.9499V68.2Z" fill="#9E7B00"/>
    <path d="M63.9499 63.9399H59.6899V68.1999H63.9499V63.9399Z" fill="#9E7B00"/>
    <path d="M63.9499 59.6799H59.6899V63.9399H63.9499V59.6799Z" fill="#CEA000"/>
    <path d="M63.9499 55.4199H59.6899V59.6799H63.9499V55.4199Z" fill="#D9B027"/>
    <path d="M63.9499 51.1499H59.6899V55.4199H63.9499V51.1499Z" fill="#D9B027"/>
    <path d="M63.9499 46.8899H59.6899V51.1499H63.9499V46.8899Z" fill="#D9B027"/>
    <path d="M63.9499 42.6299H59.6899V46.8899H63.9499V42.6299Z" fill="#E6BB29"/>
    <path d="M63.9499 38.3701H59.6899V42.6301H63.9499V38.3701Z" fill="#E6BB29"/>
    <path d="M63.9499 34.1001H59.6899V38.3601H63.9499V34.1001Z" fill="#E6BB29"/>
    <path d="M63.9499 29.8401H59.6899V34.1101H63.9499V29.8401Z" fill="#E6BB29"/>
    <path d="M63.9499 25.5701H59.6899V29.8301H63.9499V25.5701Z" fill="#E6BB29"/>
    <path d="M63.9499 21.3101H59.6899V25.5701H63.9499V21.3101Z" fill="#E6BB29"/>
    <path d="M63.9499 17.05H59.6899V21.31H63.9499V17.05Z" fill="#E6BB29"/>
    <path d="M63.9499 12.79H59.6899V17.05H63.9499V12.79Z" fill="#CEA000"/>
    <path d="M63.9499 8.52002H59.6899V12.79H63.9499V8.52002Z" fill="#9E7B00"/>
    <path d="M59.6899 80.99H55.4199V85.25H59.6899V80.99Z" fill="#9E7B00"/>
    <path d="M59.6899 76.73H55.4199V80.99H59.6899V76.73Z" fill="#9E7B00"/>
    <path d="M59.6899 72.46H55.4199V76.73H59.6899V72.46Z" fill="#9E7B00"/>
    <path d="M59.6899 68.2H55.4199V72.46H59.6899V68.2Z" fill="#9E7B00"/>
    <path d="M59.6899 63.9399H55.4199V68.1999H59.6899V63.9399Z" fill="#CEA000"/>
    <path d="M59.6899 59.6799H55.4199V63.9399H59.6899V59.6799Z" fill="#D9B027"/>
    <path d="M59.6899 55.4199H55.4199V59.6799H59.6899V55.4199Z" fill="#E6BB29"/>
    <path d="M59.6899 51.1499H55.4199V55.4199H59.6899V51.1499Z" fill="#E6BB29"/>
    <path d="M59.6899 46.8899H55.4199V51.1499H59.6899V46.8899Z" fill="#E6BB29"/>
    <path d="M59.6899 42.6299H55.4199V46.8899H59.6899V42.6299Z" fill="#E6BB29"/>
    <path d="M59.6899 38.3701H55.4199V42.6301H59.6899V38.3701Z" fill="#E6BB29"/>
    <path d="M59.6899 34.1001H55.4199V38.3601H59.6899V34.1001Z" fill="#E6BB29"/>
    <path d="M59.6899 29.8401H55.4199V34.1101H59.6899V29.8401Z" fill="#E6BB29"/>
    <path d="M59.6899 25.5701H55.4199V29.8301H59.6899V25.5701Z" fill="#E6BB29"/>
    <path d="M59.6899 21.3101H55.4199V25.5701H59.6899V21.3101Z" fill="#E6BB29"/>
    <path d="M59.6899 17.05H55.4199V21.31H59.6899V17.05Z" fill="#E6BB29"/>
    <path d="M59.6899 12.79H55.4199V17.05H59.6899V12.79Z" fill="#E6BB29"/>
    <path d="M59.6899 8.52002H55.4199V12.79H59.6899V8.52002Z" fill="#9E7B00"/>
    <path d="M59.6899 4.26001H55.4199V8.52001H59.6899V4.26001Z" fill="#9E7B00"/>
    <path d="M55.4199 80.99H51.1599V85.25H55.4199V80.99Z" fill="#9E7B00"/>
    <path d="M55.4199 76.73H51.1599V80.99H55.4199V76.73Z" fill="#9E7B00"/>
    <path d="M55.4199 72.46H51.1599V76.73H55.4199V72.46Z" fill="#9E7B00"/>
    <path d="M55.4199 68.2H51.1599V72.46H55.4199V68.2Z" fill="#CEA000"/>
    <path d="M55.4199 63.9399H51.1599V68.1999H55.4199V63.9399Z" fill="#D9B027"/>
    <path d="M55.4199 59.6799H51.1599V63.9399H55.4199V59.6799Z" fill="#D9B027"/>
    <path d="M55.4199 55.4199H51.1599V59.6799H55.4199V55.4199Z" fill="#E6BB29"/>
    <path d="M55.4199 51.1499H51.1599V55.4199H55.4199V51.1499Z" fill="#E6BB29"/>
    <path d="M55.4199 46.8899H51.1599V51.1499H55.4199V46.8899Z" fill="#E6BB29"/>
    <path d="M55.4199 42.6299H51.1599V46.8899H55.4199V42.6299Z" fill="#E6BB29"/>
    <path d="M55.4199 38.3701H51.1599V42.6301H55.4199V38.3701Z" fill="#E6BB29"/>
    <path d="M55.4199 34.1001H51.1599V38.3601H55.4199V34.1001Z" fill="#E6BB29"/>
    <path d="M55.4199 29.8401H51.1599V34.1101H55.4199V29.8401Z" fill="#E6BB29"/>
    <path d="M55.4199 25.5701H51.1599V29.8301H55.4199V25.5701Z" fill="#E6BB29"/>
    <path d="M55.4199 21.3101H51.1599V25.5701H55.4199V21.3101Z" fill="#E6BB29"/>
    <path d="M55.4199 17.05H51.1599V21.31H55.4199V17.05Z" fill="#E6BB29"/>
    <path d="M55.4199 12.79H51.1599V17.05H55.4199V12.79Z" fill="#E6BB29"/>
    <path d="M55.4199 8.52002H51.1599V12.79H55.4199V8.52002Z" fill="#E6BB29"/>
    <path d="M55.4199 4.26001H51.1599V8.52001H55.4199V4.26001Z" fill="#9E7B00"/>
    <path d="M55.4199 0H51.1599V4.26H55.4199V0Z" fill="#9E7B00"/>
    <path d="M51.1599 80.99H46.8999V85.25H51.1599V80.99Z" fill="#9E7B00"/>
    <path d="M51.1599 76.73H46.8999V80.99H51.1599V76.73Z" fill="#9E7B00"/>
    <path d="M51.1599 72.46H46.8999V76.73H51.1599V72.46Z" fill="#CEA000"/>
    <path d="M51.1599 68.2H46.8999V72.46H51.1599V68.2Z" fill="#CEA000"/>
    <path d="M51.1599 63.9399H46.8999V68.1999H51.1599V63.9399Z" fill="#E6BB29"/>
    <path d="M51.1599 59.6799H46.8999V63.9399H51.1599V59.6799Z" fill="#E6BB29"/>
    <path d="M51.1599 55.4199H46.8999V59.6799H51.1599V55.4199Z" fill="#E6BB29"/>
    <path d="M51.1599 51.1499H46.8999V55.4199H51.1599V51.1499Z" fill="#E6BB29"/>
    <path d="M51.1599 46.8899H46.8999V51.1499H51.1599V46.8899Z" fill="#E6BB29"/>
    <path d="M51.1599 42.6299H46.8999V46.8899H51.1599V42.6299Z" fill="#E6BB29"/>
    <path d="M51.1599 38.3701H46.8999V42.6301H51.1599V38.3701Z" fill="#E6BB29"/>
    <path d="M51.1599 34.1001H46.8999V38.3601H51.1599V34.1001Z" fill="#E6BB29"/>
    <path d="M51.1599 29.8401H46.8999V34.1101H51.1599V29.8401Z" fill="#E6BB29"/>
    <path d="M51.1599 25.5701H46.8999V29.8301H51.1599V25.5701Z" fill="#E6BB29"/>
    <path d="M51.1599 21.3101H46.8999V25.5701H51.1599V21.3101Z" fill="#E6BB29"/>
    <path d="M51.1599 17.05H46.8999V21.31H51.1599V17.05Z" fill="#E6BB29"/>
    <path d="M51.1599 12.79H46.8999V17.05H51.1599V12.79Z" fill="#E6BB29"/>
    <path d="M51.1599 8.52002H46.8999V12.79H51.1599V8.52002Z" fill="#E6BB29"/>
    <path d="M51.1599 4.26001H46.8999V8.52001H51.1599V4.26001Z" fill="#CEA000"/>
    <path d="M51.1599 0H46.8999V4.26H51.1599V0Z" fill="#CEA000"/>
    <path d="M46.8999 80.99H42.6399V85.25H46.8999V80.99Z" fill="#9E7B00"/>
    <path d="M46.8999 76.73H42.6399V80.99H46.8999V76.73Z" fill="#9E7B00"/>
    <path d="M46.8999 72.46H42.6399V76.73H46.8999V72.46Z" fill="#CEA000"/>
    <path d="M46.8999 68.2H42.6399V72.46H46.8999V68.2Z" fill="#CEA000"/>
    <path d="M46.8999 63.9399H42.6399V68.1999H46.8999V63.9399Z" fill="#E6BB29"/>
    <path d="M46.8999 59.6799H42.6399V63.9399H46.8999V59.6799Z" fill="#E6BB29"/>
    <path d="M46.8999 55.4199H42.6399V59.6799H46.8999V55.4199Z" fill="#E6BB29"/>
    <path d="M46.8999 51.1499H42.6399V55.4199H46.8999V51.1499Z" fill="#E6BB29"/>
    <path d="M46.8999 46.8899H42.6399V51.1499H46.8999V46.8899Z" fill="#E6BB29"/>
    <path d="M46.8999 42.6299H42.6399V46.8899H46.8999V42.6299Z" fill="#E6BB29"/>
    <path d="M46.8999 38.3701H42.6399V42.6301H46.8999V38.3701Z" fill="#E6BB29"/>
    <path d="M46.8999 34.1001H42.6399V38.3601H46.8999V34.1001Z" fill="#E6BB29"/>
    <path d="M46.8999 29.8401H42.6399V34.1101H46.8999V29.8401Z" fill="#E6BB29"/>
    <path d="M46.8999 25.5701H42.6399V29.8301H46.8999V25.5701Z" fill="#E6BB29"/>
    <path d="M46.8999 21.3101H42.6399V25.5701H46.8999V21.3101Z" fill="#E6BB29"/>
    <path d="M46.8999 17.05H42.6399V21.31H46.8999V17.05Z" fill="#E6BB29"/>
    <path d="M46.8999 12.79H42.6399V17.05H46.8999V12.79Z" fill="#E6BB29"/>
    <path d="M46.8999 8.52002H42.6399V12.79H46.8999V8.52002Z" fill="#E6BB29"/>
    <path d="M46.8999 4.26001H42.6399V8.52001H46.8999V4.26001Z" fill="#CEA000"/>
    <path d="M46.8999 0H42.6399V4.26H46.8999V0Z" fill="#CEA000"/>
    <path d="M42.6401 80.99H38.3801V85.25H42.6401V80.99Z" fill="#9E7B00"/>
    <path d="M42.6401 76.73H38.3801V80.99H42.6401V76.73Z" fill="#9E7B00"/>
    <path d="M42.6401 72.46H38.3801V76.73H42.6401V72.46Z" fill="#CEA000"/>
    <path d="M42.6401 68.2H38.3801V72.46H42.6401V68.2Z" fill="#CEA000"/>
    <path d="M42.6401 63.9399H38.3801V68.1999H42.6401V63.9399Z" fill="#E6BB29"/>
    <path d="M42.6401 59.6799H38.3801V63.9399H42.6401V59.6799Z" fill="#E6BB29"/>
    <path d="M42.6401 55.4199H38.3801V59.6799H42.6401V55.4199Z" fill="#E6BB29"/>
    <path d="M42.6401 51.1499H38.3801V55.4199H42.6401V51.1499Z" fill="#E6BB29"/>
    <path d="M42.6401 46.8899H38.3801V51.1499H42.6401V46.8899Z" fill="#E6BB29"/>
    <path d="M42.6401 42.6299H38.3801V46.8899H42.6401V42.6299Z" fill="#E6BB29"/>
    <path d="M42.6401 38.3701H38.3801V42.6301H42.6401V38.3701Z" fill="#E6BB29"/>
    <path d="M42.6401 34.1001H38.3801V38.3601H42.6401V34.1001Z" fill="#E6BB29"/>
    <path d="M42.6401 29.8401H38.3801V34.1101H42.6401V29.8401Z" fill="#E6BB29"/>
    <path d="M42.6401 25.5701H38.3801V29.8301H42.6401V25.5701Z" fill="#E6BB29"/>
    <path d="M42.6401 21.3101H38.3801V25.5701H42.6401V21.3101Z" fill="#E6BB29"/>
    <path d="M42.6401 17.05H38.3801V21.31H42.6401V17.05Z" fill="#E6BB29"/>
    <path d="M42.6401 12.79H38.3801V17.05H42.6401V12.79Z" fill="#E6BB29"/>
    <path d="M42.6401 8.52002H38.3801V12.79H42.6401V8.52002Z" fill="#E6BB29"/>
    <path d="M42.6401 4.26001H38.3801V8.52001H42.6401V4.26001Z" fill="#CEA000"/>
    <path d="M42.6401 0H38.3801V4.26H42.6401V0Z" fill="#CEA000"/>
    <path d="M38.3801 80.99H34.1101V85.25H38.3801V80.99Z" fill="#9E7B00"/>
    <path d="M38.3801 76.73H34.1101V80.99H38.3801V76.73Z" fill="#9E7B00"/>
    <path d="M38.3801 72.46H34.1101V76.73H38.3801V72.46Z" fill="#CEA000"/>
    <path d="M38.3801 68.2H34.1101V72.46H38.3801V68.2Z" fill="#CEA000"/>
    <path d="M38.3801 63.9399H34.1101V68.1999H38.3801V63.9399Z" fill="#E6BB29"/>
    <path d="M38.3801 59.6799H34.1101V63.9399H38.3801V59.6799Z" fill="#E6BB29"/>
    <path d="M38.3801 55.4199H34.1101V59.6799H38.3801V55.4199Z" fill="#E6BB29"/>
    <path d="M38.3801 51.1499H34.1101V55.4199H38.3801V51.1499Z" fill="#E6BB29"/>
    <path d="M38.3801 46.8899H34.1101V51.1499H38.3801V46.8899Z" fill="#E6BB29"/>
    <path d="M38.3801 42.6299H34.1101V46.8899H38.3801V42.6299Z" fill="#E6BB29"/>
    <path d="M38.3801 38.3701H34.1101V42.6301H38.3801V38.3701Z" fill="#E6BB29"/>
    <path d="M38.3801 34.1001H34.1101V38.3601H38.3801V34.1001Z" fill="#E6BB29"/>
    <path d="M38.3801 29.8401H34.1101V34.1101H38.3801V29.8401Z" fill="#E6BB29"/>
    <path d="M38.3801 25.5701H34.1101V29.8301H38.3801V25.5701Z" fill="#E6BB29"/>
    <path d="M38.3801 21.3101H34.1101V25.5701H38.3801V21.3101Z" fill="#E6BB29"/>
    <path d="M38.3801 17.05H34.1101V21.31H38.3801V17.05Z" fill="#E6BB29"/>
    <path d="M38.3801 12.79H34.1101V17.05H38.3801V12.79Z" fill="#E6BB29"/>
    <path d="M38.3801 8.52002H34.1101V12.79H38.3801V8.52002Z" fill="#E6BB29"/>
    <path d="M38.3801 4.26001H34.1101V8.52001H38.3801V4.26001Z" fill="#CEA000"/>
    <path d="M38.3801 0H34.1101V4.26H38.3801V0Z" fill="#CEA000"/>
    <path d="M34.1101 80.99H29.8501V85.25H34.1101V80.99Z" fill="#9E7B00"/>
    <path d="M34.1101 76.73H29.8501V80.99H34.1101V76.73Z" fill="#9E7B00"/>
    <path d="M34.1101 72.46H29.8501V76.73H34.1101V72.46Z" fill="#CEA000"/>
    <path d="M34.1101 68.2H29.8501V72.46H34.1101V68.2Z" fill="#CEA000"/>
    <path d="M34.1101 63.9399H29.8501V68.1999H34.1101V63.9399Z" fill="#E6BB29"/>
    <path d="M34.1101 59.6799H29.8501V63.9399H34.1101V59.6799Z" fill="#E6BB29"/>
    <path d="M34.1101 55.4199H29.8501V59.6799H34.1101V55.4199Z" fill="#E6BB29"/>
    <path d="M34.1101 51.1499H29.8501V55.4199H34.1101V51.1499Z" fill="#E6BB29"/>
    <path d="M34.1101 46.8899H29.8501V51.1499H34.1101V46.8899Z" fill="#E6BB29"/>
    <path d="M34.1101 42.6299H29.8501V46.8899H34.1101V42.6299Z" fill="#E6BB29"/>
    <path d="M34.1101 38.3701H29.8501V42.6301H34.1101V38.3701Z" fill="#E6BB29"/>
    <path d="M34.1101 34.1001H29.8501V38.3601H34.1101V34.1001Z" fill="#E6BB29"/>
    <path d="M34.1101 29.8401H29.8501V34.1101H34.1101V29.8401Z" fill="#E6BB29"/>
    <path d="M34.1101 25.5701H29.8501V29.8301H34.1101V25.5701Z" fill="#E6BB29"/>
    <path d="M34.1101 21.3101H29.8501V25.5701H34.1101V21.3101Z" fill="#E6BB29"/>
    <path d="M34.1101 17.05H29.8501V21.31H34.1101V17.05Z" fill="#E6BB29"/>
    <path d="M34.1101 12.79H29.8501V17.05H34.1101V12.79Z" fill="#E6BB29"/>
    <path d="M34.1101 8.52002H29.8501V12.79H34.1101V8.52002Z" fill="#E6BB29"/>
    <path d="M34.1101 4.26001H29.8501V8.52001H34.1101V4.26001Z" fill="#CEA000"/>
    <path d="M34.1101 0H29.8501V4.26H34.1101V0Z" fill="#CEA000"/>
    <path d="M29.8401 80.99H25.5801V85.25H29.8401V80.99Z" fill="#9E7B00"/>
    <path d="M29.8401 76.73H25.5801V80.99H29.8401V76.73Z" fill="#9E7B00"/>
    <path d="M29.8401 72.46H25.5801V76.73H29.8401V72.46Z" fill="#CEA000"/>
    <path d="M29.8401 68.2H25.5801V72.46H29.8401V68.2Z" fill="#CEA000"/>
    <path d="M29.8401 63.9399H25.5801V68.1999H29.8401V63.9399Z" fill="#E6BB29"/>
    <path d="M29.8401 59.6799H25.5801V63.9399H29.8401V59.6799Z" fill="#E6BB29"/>
    <path d="M29.8401 55.4199H25.5801V59.6799H29.8401V55.4199Z" fill="#E6BB29"/>
    <path d="M29.8401 51.1499H25.5801V55.4199H29.8401V51.1499Z" fill="#E6BB29"/>
    <path d="M29.8401 46.8899H25.5801V51.1499H29.8401V46.8899Z" fill="#E6BB29"/>
    <path d="M29.8401 42.6299H25.5801V46.8899H29.8401V42.6299Z" fill="#E6BB29"/>
    <path d="M29.8401 38.3701H25.5801V42.6301H29.8401V38.3701Z" fill="#E6BB29"/>
    <path d="M29.8401 34.1001H25.5801V38.3601H29.8401V34.1001Z" fill="#E6BB29"/>
    <path d="M29.8401 29.8401H25.5801V34.1101H29.8401V29.8401Z" fill="#E6BB29"/>
    <path d="M29.8401 25.5701H25.5801V29.8301H29.8401V25.5701Z" fill="#E6BB29"/>
    <path d="M29.8401 21.3101H25.5801V25.5701H29.8401V21.3101Z" fill="#E6BB29"/>
    <path d="M29.8401 17.05H25.5801V21.31H29.8401V17.05Z" fill="#E6BB29"/>
    <path d="M29.8401 12.79H25.5801V17.05H29.8401V12.79Z" fill="#E6BB29"/>
    <path d="M29.8401 8.52002H25.5801V12.79H29.8401V8.52002Z" fill="#FFDE70"/>
    <path d="M29.8401 4.26001H25.5801V8.52001H29.8401V4.26001Z" fill="#CEA000"/>
    <path d="M29.8401 0H25.5801V4.26H29.8401V0Z" fill="#CEA000"/>
    <path d="M25.5801 72.46H21.3201V76.73H25.5801V72.46Z" fill="#CEA000"/>
    <path d="M25.5801 68.2H21.3201V72.46H25.5801V68.2Z" fill="#CEA000"/>
    <path d="M25.5801 63.9399H21.3201V68.1999H25.5801V63.9399Z" fill="#E6BB29"/>
    <path d="M25.5801 59.6799H21.3201V63.9399H25.5801V59.6799Z" fill="#E6BB29"/>
    <path d="M25.5801 55.4199H21.3201V59.6799H25.5801V55.4199Z" fill="#E6BB29"/>
    <path d="M25.5801 51.1499H21.3201V55.4199H25.5801V51.1499Z" fill="#E6BB29"/>
    <path d="M25.5801 46.8899H21.3201V51.1499H25.5801V46.8899Z" fill="#E6BB29"/>
    <path d="M25.5801 42.6299H21.3201V46.8899H25.5801V42.6299Z" fill="#E6BB29"/>
    <path d="M25.5801 38.3701H21.3201V42.6301H25.5801V38.3701Z" fill="#E6BB29"/>
    <path d="M25.5801 34.1001H21.3201V38.3601H25.5801V34.1001Z" fill="#E6BB29"/>
    <path d="M25.5801 29.8401H21.3201V34.1101H25.5801V29.8401Z" fill="#E6BB29"/>
    <path d="M25.5801 25.5701H21.3201V29.8301H25.5801V25.5701Z" fill="#E6BB29"/>
    <path d="M25.5801 21.3101H21.3201V25.5701H25.5801V21.3101Z" fill="#E6BB29"/>
    <path d="M25.5801 17.05H21.3201V21.31H25.5801V17.05Z" fill="#E6BB29"/>
    <path d="M25.5801 12.79H21.3201V17.05H25.5801V12.79Z" fill="#E6BB29"/>
    <path d="M25.5801 8.52002H21.3201V12.79H25.5801V8.52002Z" fill="#FFDE70"/>
    <path d="M25.5801 4.26001H21.3201V8.52001H25.5801V4.26001Z" fill="#CEA000"/>
    <path d="M25.5801 0H21.3201V4.26H25.5801V0Z" fill="#CEA000"/>
    <path d="M21.3201 68.2H17.0601V72.46H21.3201V68.2Z" fill="#CEA000"/>
    <path d="M21.3201 63.9399H17.0601V68.1999H21.3201V63.9399Z" fill="#E6BB29"/>
    <path d="M21.3201 59.6799H17.0601V63.9399H21.3201V59.6799Z" fill="#E6BB29"/>
    <path d="M21.3201 55.4199H17.0601V59.6799H21.3201V55.4199Z" fill="#E6BB29"/>
    <path d="M21.3201 51.1499H17.0601V55.4199H21.3201V51.1499Z" fill="#E6BB29"/>
    <path d="M21.3201 46.8899H17.0601V51.1499H21.3201V46.8899Z" fill="#E6BB29"/>
    <path d="M21.3201 42.6299H17.0601V46.8899H21.3201V42.6299Z" fill="#E6BB29"/>
    <path d="M21.3201 38.3701H17.0601V42.6301H21.3201V38.3701Z" fill="#E6BB29"/>
    <path d="M21.3201 34.1001H17.0601V38.3601H21.3201V34.1001Z" fill="#E6BB29"/>
    <path d="M21.3201 29.8401H17.0601V34.1101H21.3201V29.8401Z" fill="#E6BB29"/>
    <path d="M21.3201 25.5701H17.0601V29.8301H21.3201V25.5701Z" fill="#E6BB29"/>
    <path d="M21.3201 21.3101H17.0601V25.5701H21.3201V21.3101Z" fill="#E6BB29"/>
    <path d="M21.3201 17.05H17.0601V21.31H21.3201V17.05Z" fill="#E6BB29"/>
    <path d="M21.3201 12.79H17.0601V17.05H21.3201V12.79Z" fill="#E6BB29"/>
    <path d="M21.3201 8.52002H17.0601V12.79H21.3201V8.52002Z" fill="#FFDE70"/>
    <path d="M21.3201 4.26001H17.0601V8.52001H21.3201V4.26001Z" fill="#CEA000"/>
    <path d="M17.06 63.9399H12.79V68.1999H17.06V63.9399Z" fill="#CEA000"/>
    <path d="M17.06 59.6799H12.79V63.9399H17.06V59.6799Z" fill="#E6BB29"/>
    <path d="M17.06 55.4199H12.79V59.6799H17.06V55.4199Z" fill="#E6BB29"/>
    <path d="M17.06 51.1499H12.79V55.4199H17.06V51.1499Z" fill="#E6BB29"/>
    <path d="M17.06 46.8899H12.79V51.1499H17.06V46.8899Z" fill="#E6BB29"/>
    <path d="M17.06 42.6299H12.79V46.8899H17.06V42.6299Z" fill="#E6BB29"/>
    <path d="M17.06 38.3701H12.79V42.6301H17.06V38.3701Z" fill="#E6BB29"/>
    <path d="M17.06 34.1001H12.79V38.3601H17.06V34.1001Z" fill="#E6BB29"/>
    <path d="M17.06 29.8401H12.79V34.1101H17.06V29.8401Z" fill="#E6BB29"/>
    <path d="M17.06 25.5701H12.79V29.8301H17.06V25.5701Z" fill="#FFDE70"/>
    <path d="M17.06 21.3101H12.79V25.5701H17.06V21.3101Z" fill="#E6BB29"/>
    <path d="M17.06 17.05H12.79V21.31H17.06V17.05Z" fill="#E6BB29"/>
    <path d="M17.06 12.79H12.79V17.05H17.06V12.79Z" fill="#FFDE70"/>
    <path d="M17.06 8.52002H12.79V12.79H17.06V8.52002Z" fill="#CEA000"/>
    <path d="M12.79 59.6799H8.53003V63.9399H12.79V59.6799Z" fill="#CEA000"/>
    <path d="M12.79 55.4199H8.53003V59.6799H12.79V55.4199Z" fill="#E6BB29"/>
    <path d="M12.79 51.1499H8.53003V55.4199H12.79V51.1499Z" fill="#E6BB29"/>
    <path d="M12.79 46.8899H8.53003V51.1499H12.79V46.8899Z" fill="#E6BB29"/>
    <path d="M12.79 42.6299H8.53003V46.8899H12.79V42.6299Z" fill="#E6BB29"/>
    <path d="M12.79 38.3701H8.53003V42.6301H12.79V38.3701Z" fill="#E6BB29"/>
    <path d="M12.79 34.1001H8.53003V38.3601H12.79V34.1001Z" fill="#FFDE70"/>
    <path d="M12.79 29.8401H8.53003V34.1101H12.79V29.8401Z" fill="#FFDE70"/>
    <path d="M12.79 25.5701H8.53003V29.8301H12.79V25.5701Z" fill="#E6BB29"/>
    <path d="M12.79 21.3101H8.53003V25.5701H12.79V21.3101Z" fill="#E6BB29"/>
    <path d="M12.79 17.05H8.53003V21.31H12.79V17.05Z" fill="#FFDE70"/>
    <path d="M12.79 12.79H8.53003V17.05H12.79V12.79Z" fill="#CEA000"/>
    <path d="M8.53002 55.4199H4.27002V59.6799H8.53002V55.4199Z" fill="#CEA000"/>
    <path d="M8.53002 51.1499H4.27002V55.4199H8.53002V51.1499Z" fill="#CEA000"/>
    <path d="M8.53002 46.8899H4.27002V51.1499H8.53002V46.8899Z" fill="#CEA000"/>
    <path d="M8.53002 42.6299H4.27002V46.8899H8.53002V42.6299Z" fill="#CEA000"/>
    <path d="M8.53002 38.3701H4.27002V42.6301H8.53002V38.3701Z" fill="#CEA000"/>
    <path d="M8.53002 34.1001H4.27002V38.3601H8.53002V34.1001Z" fill="#CEA000"/>
    <path d="M8.53002 29.8401H4.27002V34.1101H8.53002V29.8401Z" fill="#CEA000"/>
    <path d="M8.53002 25.5701H4.27002V29.8301H8.53002V25.5701Z" fill="#CEA000"/>
    <path d="M8.53002 21.3101H4.27002V25.5701H8.53002V21.3101Z" fill="#CEA000"/>
    <path d="M8.53002 17.05H4.27002V21.31H8.53002V17.05Z" fill="#CEA000"/>
    <path d="M4.27001 51.1499H0.0100098V55.4199H4.27001V51.1499Z" fill="#CEA000"/>
    <path d="M4.27001 46.8899H0.0100098V51.1499H4.27001V46.8899Z" fill="#CEA000"/>
    <path d="M4.27001 42.6299H0.0100098V46.8899H4.27001V42.6299Z" fill="#CEA000"/>
    <path d="M4.27001 38.3701H0.0100098V42.6301H4.27001V38.3701Z" fill="#CEA000"/>
    <path d="M4.27001 34.1001H0.0100098V38.3601H4.27001V34.1001Z" fill="#CEA000"/>
    <path d="M4.27001 29.8401H0.0100098V34.1101H4.27001V29.8401Z" fill="#CEA000"/>
    <path d="M4.27001 25.5701H0.0100098V29.8301H4.27001V25.5701Z" fill="#CEA000"/>
    <path d="M4.27001 21.3101H0.0100098V25.5701H4.27001V21.3101Z" fill="#CEA000"/>
    <path
      d="M27.6333 45.582H11.7489V42.978H16.9941V32.4132H14.4273V29.6976H16.9569V27.0564H22.3137V42.8664H27.6333V45.582ZM48.3464 40.2624H45.8168V42.9036H43.1756V45.582H35.1404V43.0524H32.4992V40.374H29.8208V32.3388H32.3504V29.6976H35.0288V27.0564H43.0268V29.586H45.7052V32.2272H48.3464V40.2624ZM43.0268 42.9036V32.2272H40.3856V29.6976H35.1404V40.374H37.8188V42.9036H43.0268ZM68.7992 40.2624H66.2696V42.9036H63.6284V45.582H55.5932V43.0524H52.952V40.374H50.2736V32.3388H52.8032V29.6976H55.4816V27.0564H63.4796V29.586H66.158V32.2272H68.7992V40.2624ZM63.4796 42.9036V32.2272H60.8384V29.6976H55.5932V40.374H58.2716V42.9036H63.4796Z"
      fill="white"/>
  </g>
  <defs>
    <clipPath id="clip0_6156_8403">
      <rect width="80.98" height="85.25" fill="white" transform="translate(0.0100098)"/>
    </clipPath>
  </defs>
</svg>
