<svg width="82" height="86" viewBox="0 0 82 86" fill="none" xmlns="http://www.w3.org/2000/svg">
  <g clip-path="url(#clip0_6156_8089)">
    <path d="M4.29003 55.4199H0.0300293V59.6799H4.29003V55.4199Z" fill="#83ADAF"/>
    <path d="M8.55004 59.6799H4.29004V63.9399H8.55004V59.6799Z" fill="#83ADAF"/>
    <path d="M12.81 63.9399H8.55005V68.1999H12.81V63.9399Z" fill="#83ADAF"/>
    <path d="M17.0801 68.2H12.8101V72.46H17.0801V68.2Z" fill="#83ADAF"/>
    <path d="M21.3401 72.46H17.0801V76.73H21.3401V72.46Z" fill="#83ADAF"/>
    <path d="M25.6001 76.73H21.3401V80.99H25.6001V76.73Z" fill="#83ADAF"/>
    <path d="M81.01 55.4199H76.75V59.6799H81.01V55.4199Z" fill="#83ADAF"/>
    <path d="M81.01 51.1499H76.75V55.4199H81.01V51.1499Z" fill="#83ADAF"/>
    <path d="M81.01 46.8899H76.75V51.1499H81.01V46.8899Z" fill="#83ADAF"/>
    <path d="M81.01 42.6299H76.75V46.8899H81.01V42.6299Z" fill="#83ADAF"/>
    <path d="M81.01 38.3701H76.75V42.6301H81.01V38.3701Z" fill="#83ADAF"/>
    <path d="M81.01 34.1001H76.75V38.3601H81.01V34.1001Z" fill="#83ADAF"/>
    <path d="M81.01 29.8401H76.75V34.1101H81.01V29.8401Z" fill="#83ADAF"/>
    <path d="M81.01 25.5701H76.75V29.8301H81.01V25.5701Z" fill="#83ADAF"/>
    <path d="M81.01 21.3101H76.75V25.5701H81.01V21.3101Z" fill="#83ADAF"/>
    <path d="M76.75 59.6799H72.49V63.9399H76.75V59.6799Z" fill="#83ADAF"/>
    <path d="M76.75 55.4199H72.49V59.6799H76.75V55.4199Z" fill="#83ADAF"/>
    <path d="M76.75 51.1499H72.49V55.4199H76.75V51.1499Z" fill="#83ADAF"/>
    <path d="M76.75 46.8899H72.49V51.1499H76.75V46.8899Z" fill="#83ADAF"/>
    <path d="M76.75 42.6299H72.49V46.8899H76.75V42.6299Z" fill="#83ADAF"/>
    <path d="M76.75 38.3701H72.49V42.6301H76.75V38.3701Z" fill="#83ADAF"/>
    <path d="M76.75 34.1001H72.49V38.3601H76.75V34.1001Z" fill="#83ADAF"/>
    <path d="M76.75 29.8401H72.49V34.1101H76.75V29.8401Z" fill="#83ADAF"/>
    <path d="M76.75 25.5701H72.49V29.8301H76.75V25.5701Z" fill="#83ADAF"/>
    <path d="M76.75 21.3101H72.49V25.5701H76.75V21.3101Z" fill="#83ADAF"/>
    <path d="M76.75 17.05H72.49V21.31H76.75V17.05Z" fill="#83ADAF"/>
    <path d="M72.49 63.9399H68.23V68.1999H72.49V63.9399Z" fill="#83ADAF"/>
    <path d="M72.49 59.6799H68.23V63.9399H72.49V59.6799Z" fill="#83ADAF"/>
    <path d="M72.49 55.4199H68.23V59.6799H72.49V55.4199Z" fill="#83ADAF"/>
    <path d="M72.49 51.1499H68.23V55.4199H72.49V51.1499Z" fill="#A2DFE3"/>
    <path d="M72.49 46.8899H68.23V51.1499H72.49V46.8899Z" fill="#A2DFE3"/>
    <path d="M72.49 42.6299H68.23V46.8899H72.49V42.6299Z" fill="#A2DFE3"/>
    <path d="M72.49 38.3701H68.23V42.6301H72.49V38.3701Z" fill="#A2DFE3"/>
    <path d="M72.49 34.1001H68.23V38.3601H72.49V34.1001Z" fill="#A2DFE3"/>
    <path d="M72.49 29.8401H68.23V34.1101H72.49V29.8401Z" fill="#A2DFE3"/>
    <path d="M72.49 25.5701H68.23V29.8301H72.49V25.5701Z" fill="#A2DFE3"/>
    <path d="M72.49 21.3101H68.23V25.5701H72.49V21.3101Z" fill="#A2DFE3"/>
    <path d="M72.49 17.05H68.23V21.31H72.49V17.05Z" fill="#83ADAF"/>
    <path d="M72.49 12.79H68.23V17.05H72.49V12.79Z" fill="#83ADAF"/>
    <path d="M68.23 72.46H63.97V76.73H68.23V72.46Z" fill="#83ADAF"/>
    <path d="M68.23 68.2H63.97V72.46H68.23V68.2Z" fill="#83ADAF"/>
    <path d="M68.23 63.9399H63.97V68.1999H68.23V63.9399Z" fill="#83ADAF"/>
    <path d="M68.23 59.6799H63.97V63.9399H68.23V59.6799Z" fill="#83ADAF"/>
    <path d="M68.23 55.4199H63.97V59.6799H68.23V55.4199Z" fill="#A2DFE3"/>
    <path d="M68.23 51.1499H63.97V55.4199H68.23V51.1499Z" fill="#9AD2D6"/>
    <path d="M68.23 46.8899H63.97V51.1499H68.23V46.8899Z" fill="#9AD2D6"/>
    <path d="M68.23 42.6299H63.97V46.8899H68.23V42.6299Z" fill="#9AD2D6"/>
    <path d="M68.23 38.3701H63.97V42.6301H68.23V38.3701Z" fill="#9AD2D6"/>
    <path d="M68.23 34.1001H63.97V38.3601H68.23V34.1001Z" fill="#9AD2D6"/>
    <path d="M68.23 29.8401H63.97V34.1101H68.23V29.8401Z" fill="#9AD2D6"/>
    <path d="M68.23 25.5701H63.97V29.8301H68.23V25.5701Z" fill="#9AD2D6"/>
    <path d="M68.23 21.3101H63.97V25.5701H68.23V21.3101Z" fill="#9AD2D6"/>
    <path d="M68.23 17.05H63.97V21.31H68.23V17.05Z" fill="#A2DFE3"/>
    <path d="M68.23 12.79H63.97V17.05H68.23V12.79Z" fill="#83ADAF"/>
    <path d="M68.23 8.52002H63.97V12.79H68.23V8.52002Z" fill="#83ADAF"/>
    <path d="M63.97 76.73H59.71V80.99H63.97V76.73Z" fill="#83ADAF"/>
    <path d="M63.97 72.46H59.71V76.73H63.97V72.46Z" fill="#83ADAF"/>
    <path d="M63.97 68.2H59.71V72.46H63.97V68.2Z" fill="#83ADAF"/>
    <path d="M63.97 63.9399H59.71V68.1999H63.97V63.9399Z" fill="#83ADAF"/>
    <path d="M63.97 59.6799H59.71V63.9399H63.97V59.6799Z" fill="#A2DFE3"/>
    <path d="M63.97 55.4199H59.71V59.6799H63.97V55.4199Z" fill="#80D6DB"/>
    <path d="M63.97 51.1499H59.71V55.4199H63.97V51.1499Z" fill="#80D6DB"/>
    <path d="M63.97 46.8899H59.71V51.1499H63.97V46.8899Z" fill="#80D6DB"/>
    <path d="M63.97 42.6299H59.71V46.8899H63.97V42.6299Z" fill="#9AD2D6"/>
    <path d="M63.97 38.3701H59.71V42.6301H63.97V38.3701Z" fill="#9AD2D6"/>
    <path d="M63.97 34.1001H59.71V38.3601H63.97V34.1001Z" fill="#9AD2D6"/>
    <path d="M63.97 29.8401H59.71V34.1101H63.97V29.8401Z" fill="#9AD2D6"/>
    <path d="M63.97 25.5701H59.71V29.8301H63.97V25.5701Z" fill="#9AD2D6"/>
    <path d="M63.97 21.3101H59.71V25.5701H63.97V21.3101Z" fill="#9AD2D6"/>
    <path d="M63.97 17.05H59.71V21.31H63.97V17.05Z" fill="#9AD2D6"/>
    <path d="M63.97 12.79H59.71V17.05H63.97V12.79Z" fill="#A2DFE3"/>
    <path d="M63.97 8.52002H59.71V12.79H63.97V8.52002Z" fill="#83ADAF"/>
    <path d="M59.7099 80.99H55.4399V85.25H59.7099V80.99Z" fill="#83ADAF"/>
    <path d="M59.7099 76.73H55.4399V80.99H59.7099V76.73Z" fill="#83ADAF"/>
    <path d="M59.7099 72.46H55.4399V76.73H59.7099V72.46Z" fill="#83ADAF"/>
    <path d="M59.7099 68.2H55.4399V72.46H59.7099V68.2Z" fill="#83ADAF"/>
    <path d="M59.7099 63.9399H55.4399V68.1999H59.7099V63.9399Z" fill="#A2DFE3"/>
    <path d="M59.7099 59.6799H55.4399V63.9399H59.7099V59.6799Z" fill="#80D6DB"/>
    <path d="M59.7099 55.4199H55.4399V59.6799H59.7099V55.4199Z" fill="#9AD2D6"/>
    <path d="M59.7099 51.1499H55.4399V55.4199H59.7099V51.1499Z" fill="#9AD2D6"/>
    <path d="M59.7099 46.8899H55.4399V51.1499H59.7099V46.8899Z" fill="#9AD2D6"/>
    <path d="M59.7099 42.6299H55.4399V46.8899H59.7099V42.6299Z" fill="#9AD2D6"/>
    <path d="M59.7099 38.3701H55.4399V42.6301H59.7099V38.3701Z" fill="#9AD2D6"/>
    <path d="M59.7099 34.1001H55.4399V38.3601H59.7099V34.1001Z" fill="#9AD2D6"/>
    <path d="M59.7099 29.8401H55.4399V34.1101H59.7099V29.8401Z" fill="#9AD2D6"/>
    <path d="M59.7099 25.5701H55.4399V29.8301H59.7099V25.5701Z" fill="#9AD2D6"/>
    <path d="M59.7099 21.3101H55.4399V25.5701H59.7099V21.3101Z" fill="#9AD2D6"/>
    <path d="M59.7099 17.05H55.4399V21.31H59.7099V17.05Z" fill="#9AD2D6"/>
    <path d="M59.7099 12.79H55.4399V17.05H59.7099V12.79Z" fill="#9AD2D6"/>
    <path d="M59.7099 8.52002H55.4399V12.79H59.7099V8.52002Z" fill="#83ADAF"/>
    <path d="M59.7099 4.26001H55.4399V8.52001H59.7099V4.26001Z" fill="#83ADAF"/>
    <path d="M55.4399 80.99H51.1799V85.25H55.4399V80.99Z" fill="#83ADAF"/>
    <path d="M55.4399 76.73H51.1799V80.99H55.4399V76.73Z" fill="#83ADAF"/>
    <path d="M55.4399 72.46H51.1799V76.73H55.4399V72.46Z" fill="#83ADAF"/>
    <path d="M55.4399 68.2H51.1799V72.46H55.4399V68.2Z" fill="#A2DFE3"/>
    <path d="M55.4399 63.9399H51.1799V68.1999H55.4399V63.9399Z" fill="#80D6DB"/>
    <path d="M55.4399 59.6799H51.1799V63.9399H55.4399V59.6799Z" fill="#80D6DB"/>
    <path d="M55.4399 55.4199H51.1799V59.6799H55.4399V55.4199Z" fill="#9AD2D6"/>
    <path d="M55.4399 51.1499H51.1799V55.4199H55.4399V51.1499Z" fill="#9AD2D6"/>
    <path d="M55.4399 46.8899H51.1799V51.1499H55.4399V46.8899Z" fill="#9AD2D6"/>
    <path d="M55.4399 42.6299H51.1799V46.8899H55.4399V42.6299Z" fill="#9AD2D6"/>
    <path d="M55.4399 38.3701H51.1799V42.6301H55.4399V38.3701Z" fill="#9AD2D6"/>
    <path d="M55.4399 34.1001H51.1799V38.3601H55.4399V34.1001Z" fill="#9AD2D6"/>
    <path d="M55.4399 29.8401H51.1799V34.1101H55.4399V29.8401Z" fill="#9AD2D6"/>
    <path d="M55.4399 25.5701H51.1799V29.8301H55.4399V25.5701Z" fill="#9AD2D6"/>
    <path d="M55.4399 21.3101H51.1799V25.5701H55.4399V21.3101Z" fill="#9AD2D6"/>
    <path d="M55.4399 17.05H51.1799V21.31H55.4399V17.05Z" fill="#9AD2D6"/>
    <path d="M55.4399 12.79H51.1799V17.05H55.4399V12.79Z" fill="#9AD2D6"/>
    <path d="M55.4399 8.52002H51.1799V12.79H55.4399V8.52002Z" fill="#9AD2D6"/>
    <path d="M55.4399 4.26001H51.1799V8.52001H55.4399V4.26001Z" fill="#83ADAF"/>
    <path d="M55.4399 0H51.1799V4.26H55.4399V0Z" fill="#83ADAF"/>
    <path d="M51.1799 80.99H46.9199V85.25H51.1799V80.99Z" fill="#83ADAF"/>
    <path d="M51.1799 76.73H46.9199V80.99H51.1799V76.73Z" fill="#83ADAF"/>
    <path d="M51.1799 72.46H46.9199V76.73H51.1799V72.46Z" fill="#A2DFE3"/>
    <path d="M51.1799 68.2H46.9199V72.46H51.1799V68.2Z" fill="#A2DFE3"/>
    <path d="M51.1799 63.9399H46.9199V68.1999H51.1799V63.9399Z" fill="#9AD2D6"/>
    <path d="M51.1799 59.6799H46.9199V63.9399H51.1799V59.6799Z" fill="#9AD2D6"/>
    <path d="M51.1799 55.4199H46.9199V59.6799H51.1799V55.4199Z" fill="#9AD2D6"/>
    <path d="M51.1799 51.1499H46.9199V55.4199H51.1799V51.1499Z" fill="#9AD2D6"/>
    <path d="M51.1799 46.8899H46.9199V51.1499H51.1799V46.8899Z" fill="#9AD2D6"/>
    <path d="M51.1799 42.6299H46.9199V46.8899H51.1799V42.6299Z" fill="#9AD2D6"/>
    <path d="M51.1799 38.3701H46.9199V42.6301H51.1799V38.3701Z" fill="#9AD2D6"/>
    <path d="M51.1799 34.1001H46.9199V38.3601H51.1799V34.1001Z" fill="#9AD2D6"/>
    <path d="M51.1799 29.8401H46.9199V34.1101H51.1799V29.8401Z" fill="#9AD2D6"/>
    <path d="M51.1799 25.5701H46.9199V29.8301H51.1799V25.5701Z" fill="#9AD2D6"/>
    <path d="M51.1799 21.3101H46.9199V25.5701H51.1799V21.3101Z" fill="#9AD2D6"/>
    <path d="M51.1799 17.05H46.9199V21.31H51.1799V17.05Z" fill="#9AD2D6"/>
    <path d="M51.1799 12.79H46.9199V17.05H51.1799V12.79Z" fill="#9AD2D6"/>
    <path d="M51.1799 8.52002H46.9199V12.79H51.1799V8.52002Z" fill="#9AD2D6"/>
    <path d="M51.1799 4.26001H46.9199V8.52001H51.1799V4.26001Z" fill="#A2DFE3"/>
    <path d="M51.1799 0H46.9199V4.26H51.1799V0Z" fill="#A2DFE3"/>
    <path d="M46.9199 80.99H42.6599V85.25H46.9199V80.99Z" fill="#83ADAF"/>
    <path d="M46.9199 76.73H42.6599V80.99H46.9199V76.73Z" fill="#83ADAF"/>
    <path d="M46.9199 72.46H42.6599V76.73H46.9199V72.46Z" fill="#A2DFE3"/>
    <path d="M46.9199 68.2H42.6599V72.46H46.9199V68.2Z" fill="#A2DFE3"/>
    <path d="M46.9199 63.9399H42.6599V68.1999H46.9199V63.9399Z" fill="#9AD2D6"/>
    <path d="M46.9199 59.6799H42.6599V63.9399H46.9199V59.6799Z" fill="#9AD2D6"/>
    <path d="M46.9199 55.4199H42.6599V59.6799H46.9199V55.4199Z" fill="#9AD2D6"/>
    <path d="M46.9199 51.1499H42.6599V55.4199H46.9199V51.1499Z" fill="#9AD2D6"/>
    <path d="M46.9199 46.8899H42.6599V51.1499H46.9199V46.8899Z" fill="#9AD2D6"/>
    <path d="M46.9199 42.6299H42.6599V46.8899H46.9199V42.6299Z" fill="#9AD2D6"/>
    <path d="M46.9199 38.3701H42.6599V42.6301H46.9199V38.3701Z" fill="#9AD2D6"/>
    <path d="M46.9199 34.1001H42.6599V38.3601H46.9199V34.1001Z" fill="#9AD2D6"/>
    <path d="M46.9199 29.8401H42.6599V34.1101H46.9199V29.8401Z" fill="#9AD2D6"/>
    <path d="M46.9199 25.5701H42.6599V29.8301H46.9199V25.5701Z" fill="#9AD2D6"/>
    <path d="M46.9199 21.3101H42.6599V25.5701H46.9199V21.3101Z" fill="#9AD2D6"/>
    <path d="M46.9199 17.05H42.6599V21.31H46.9199V17.05Z" fill="#9AD2D6"/>
    <path d="M46.9199 12.79H42.6599V17.05H46.9199V12.79Z" fill="#9AD2D6"/>
    <path d="M46.9199 8.52002H42.6599V12.79H46.9199V8.52002Z" fill="#9AD2D6"/>
    <path d="M46.9199 4.26001H42.6599V8.52001H46.9199V4.26001Z" fill="#A2DFE3"/>
    <path d="M46.9199 0H42.6599V4.26H46.9199V0Z" fill="#A2DFE3"/>
    <path d="M42.6601 80.99H38.4001V85.25H42.6601V80.99Z" fill="#83ADAF"/>
    <path d="M42.6601 76.73H38.4001V80.99H42.6601V76.73Z" fill="#83ADAF"/>
    <path d="M42.6601 72.46H38.4001V76.73H42.6601V72.46Z" fill="#A2DFE3"/>
    <path d="M42.6601 68.2H38.4001V72.46H42.6601V68.2Z" fill="#A2DFE3"/>
    <path d="M42.6601 63.9399H38.4001V68.1999H42.6601V63.9399Z" fill="#9AD2D6"/>
    <path d="M42.6601 59.6799H38.4001V63.9399H42.6601V59.6799Z" fill="#9AD2D6"/>
    <path d="M42.6601 55.4199H38.4001V59.6799H42.6601V55.4199Z" fill="#9AD2D6"/>
    <path d="M42.6601 51.1499H38.4001V55.4199H42.6601V51.1499Z" fill="#9AD2D6"/>
    <path d="M42.6601 46.8899H38.4001V51.1499H42.6601V46.8899Z" fill="#9AD2D6"/>
    <path d="M42.6601 42.6299H38.4001V46.8899H42.6601V42.6299Z" fill="#9AD2D6"/>
    <path d="M42.6601 38.3701H38.4001V42.6301H42.6601V38.3701Z" fill="#9AD2D6"/>
    <path d="M42.6601 34.1001H38.4001V38.3601H42.6601V34.1001Z" fill="#9AD2D6"/>
    <path d="M42.6601 29.8401H38.4001V34.1101H42.6601V29.8401Z" fill="#9AD2D6"/>
    <path d="M42.6601 25.5701H38.4001V29.8301H42.6601V25.5701Z" fill="#9AD2D6"/>
    <path d="M42.6601 21.3101H38.4001V25.5701H42.6601V21.3101Z" fill="#9AD2D6"/>
    <path d="M42.6601 17.05H38.4001V21.31H42.6601V17.05Z" fill="#9AD2D6"/>
    <path d="M42.6601 12.79H38.4001V17.05H42.6601V12.79Z" fill="#9AD2D6"/>
    <path d="M42.6601 8.52002H38.4001V12.79H42.6601V8.52002Z" fill="#9AD2D6"/>
    <path d="M42.6601 4.26001H38.4001V8.52001H42.6601V4.26001Z" fill="#A2DFE3"/>
    <path d="M42.6601 0H38.4001V4.26H42.6601V0Z" fill="#A2DFE3"/>
    <path d="M38.4001 80.99H34.1301V85.25H38.4001V80.99Z" fill="#83ADAF"/>
    <path d="M38.4001 76.73H34.1301V80.99H38.4001V76.73Z" fill="#83ADAF"/>
    <path d="M38.4001 72.46H34.1301V76.73H38.4001V72.46Z" fill="#A2DFE3"/>
    <path d="M38.4001 68.2H34.1301V72.46H38.4001V68.2Z" fill="#A2DFE3"/>
    <path d="M38.4001 63.9399H34.1301V68.1999H38.4001V63.9399Z" fill="#9AD2D6"/>
    <path d="M38.4001 59.6799H34.1301V63.9399H38.4001V59.6799Z" fill="#9AD2D6"/>
    <path d="M38.4001 55.4199H34.1301V59.6799H38.4001V55.4199Z" fill="#9AD2D6"/>
    <path d="M38.4001 51.1499H34.1301V55.4199H38.4001V51.1499Z" fill="#9AD2D6"/>
    <path d="M38.4001 46.8899H34.1301V51.1499H38.4001V46.8899Z" fill="#9AD2D6"/>
    <path d="M38.4001 42.6299H34.1301V46.8899H38.4001V42.6299Z" fill="#9AD2D6"/>
    <path d="M38.4001 38.3701H34.1301V42.6301H38.4001V38.3701Z" fill="#9AD2D6"/>
    <path d="M38.4001 34.1001H34.1301V38.3601H38.4001V34.1001Z" fill="#9AD2D6"/>
    <path d="M38.4001 29.8401H34.1301V34.1101H38.4001V29.8401Z" fill="#9AD2D6"/>
    <path d="M38.4001 25.5701H34.1301V29.8301H38.4001V25.5701Z" fill="#9AD2D6"/>
    <path d="M38.4001 21.3101H34.1301V25.5701H38.4001V21.3101Z" fill="#9AD2D6"/>
    <path d="M38.4001 17.05H34.1301V21.31H38.4001V17.05Z" fill="#9AD2D6"/>
    <path d="M38.4001 12.79H34.1301V17.05H38.4001V12.79Z" fill="#9AD2D6"/>
    <path d="M38.4001 8.52002H34.1301V12.79H38.4001V8.52002Z" fill="#9AD2D6"/>
    <path d="M38.4001 4.26001H34.1301V8.52001H38.4001V4.26001Z" fill="#A2DFE3"/>
    <path d="M38.4001 0H34.1301V4.26H38.4001V0Z" fill="#A2DFE3"/>
    <path d="M34.1301 80.99H29.8701V85.25H34.1301V80.99Z" fill="#83ADAF"/>
    <path d="M34.1301 76.73H29.8701V80.99H34.1301V76.73Z" fill="#83ADAF"/>
    <path d="M34.1301 72.46H29.8701V76.73H34.1301V72.46Z" fill="#A2DFE3"/>
    <path d="M34.1301 68.2H29.8701V72.46H34.1301V68.2Z" fill="#A2DFE3"/>
    <path d="M34.1301 63.9399H29.8701V68.1999H34.1301V63.9399Z" fill="#9AD2D6"/>
    <path d="M34.1301 59.6799H29.8701V63.9399H34.1301V59.6799Z" fill="#9AD2D6"/>
    <path d="M34.1301 55.4199H29.8701V59.6799H34.1301V55.4199Z" fill="#9AD2D6"/>
    <path d="M34.1301 51.1499H29.8701V55.4199H34.1301V51.1499Z" fill="#9AD2D6"/>
    <path d="M34.1301 46.8899H29.8701V51.1499H34.1301V46.8899Z" fill="#9AD2D6"/>
    <path d="M34.1301 42.6299H29.8701V46.8899H34.1301V42.6299Z" fill="#9AD2D6"/>
    <path d="M34.1301 38.3701H29.8701V42.6301H34.1301V38.3701Z" fill="#9AD2D6"/>
    <path d="M34.1301 34.1001H29.8701V38.3601H34.1301V34.1001Z" fill="#9AD2D6"/>
    <path d="M34.1301 29.8401H29.8701V34.1101H34.1301V29.8401Z" fill="#9AD2D6"/>
    <path d="M34.1301 25.5701H29.8701V29.8301H34.1301V25.5701Z" fill="#9AD2D6"/>
    <path d="M34.1301 21.3101H29.8701V25.5701H34.1301V21.3101Z" fill="#9AD2D6"/>
    <path d="M34.1301 17.05H29.8701V21.31H34.1301V17.05Z" fill="#9AD2D6"/>
    <path d="M34.1301 12.79H29.8701V17.05H34.1301V12.79Z" fill="#9AD2D6"/>
    <path d="M34.1301 8.52002H29.8701V12.79H34.1301V8.52002Z" fill="#9AD2D6"/>
    <path d="M34.1301 4.26001H29.8701V8.52001H34.1301V4.26001Z" fill="#A2DFE3"/>
    <path d="M34.1301 0H29.8701V4.26H34.1301V0Z" fill="#A2DFE3"/>
    <path d="M29.8601 80.99H25.6001V85.25H29.8601V80.99Z" fill="#83ADAF"/>
    <path d="M29.8601 76.73H25.6001V80.99H29.8601V76.73Z" fill="#83ADAF"/>
    <path d="M29.8601 72.46H25.6001V76.73H29.8601V72.46Z" fill="#A2DFE3"/>
    <path d="M29.8601 68.2H25.6001V72.46H29.8601V68.2Z" fill="#A2DFE3"/>
    <path d="M29.8601 63.9399H25.6001V68.1999H29.8601V63.9399Z" fill="#9AD2D6"/>
    <path d="M29.8601 59.6799H25.6001V63.9399H29.8601V59.6799Z" fill="#9AD2D6"/>
    <path d="M29.8601 55.4199H25.6001V59.6799H29.8601V55.4199Z" fill="#9AD2D6"/>
    <path d="M29.8601 51.1499H25.6001V55.4199H29.8601V51.1499Z" fill="#9AD2D6"/>
    <path d="M29.8601 46.8899H25.6001V51.1499H29.8601V46.8899Z" fill="#9AD2D6"/>
    <path d="M29.8601 42.6299H25.6001V46.8899H29.8601V42.6299Z" fill="#9AD2D6"/>
    <path d="M29.8601 38.3701H25.6001V42.6301H29.8601V38.3701Z" fill="#9AD2D6"/>
    <path d="M29.8601 34.1001H25.6001V38.3601H29.8601V34.1001Z" fill="#9AD2D6"/>
    <path d="M29.8601 29.8401H25.6001V34.1101H29.8601V29.8401Z" fill="#9AD2D6"/>
    <path d="M29.8601 25.5701H25.6001V29.8301H29.8601V25.5701Z" fill="#9AD2D6"/>
    <path d="M29.8601 21.3101H25.6001V25.5701H29.8601V21.3101Z" fill="#9AD2D6"/>
    <path d="M29.8601 17.05H25.6001V21.31H29.8601V17.05Z" fill="#9AD2D6"/>
    <path d="M29.8601 12.79H25.6001V17.05H29.8601V12.79Z" fill="#9AD2D6"/>
    <path d="M29.8601 8.52002H25.6001V12.79H29.8601V8.52002Z" fill="#D1FDFD"/>
    <path d="M29.8601 4.26001H25.6001V8.52001H29.8601V4.26001Z" fill="#A2DFE3"/>
    <path d="M29.8601 0H25.6001V4.26H29.8601V0Z" fill="#A2DFE3"/>
    <path d="M25.6001 72.46H21.3401V76.73H25.6001V72.46Z" fill="#A2DFE3"/>
    <path d="M25.6001 68.2H21.3401V72.46H25.6001V68.2Z" fill="#A2DFE3"/>
    <path d="M25.6001 63.9399H21.3401V68.1999H25.6001V63.9399Z" fill="#9AD2D6"/>
    <path d="M25.6001 59.6799H21.3401V63.9399H25.6001V59.6799Z" fill="#9AD2D6"/>
    <path d="M25.6001 55.4199H21.3401V59.6799H25.6001V55.4199Z" fill="#9AD2D6"/>
    <path d="M25.6001 51.1499H21.3401V55.4199H25.6001V51.1499Z" fill="#9AD2D6"/>
    <path d="M25.6001 46.8899H21.3401V51.1499H25.6001V46.8899Z" fill="#9AD2D6"/>
    <path d="M25.6001 42.6299H21.3401V46.8899H25.6001V42.6299Z" fill="#9AD2D6"/>
    <path d="M25.6001 38.3701H21.3401V42.6301H25.6001V38.3701Z" fill="#9AD2D6"/>
    <path d="M25.6001 34.1001H21.3401V38.3601H25.6001V34.1001Z" fill="#9AD2D6"/>
    <path d="M25.6001 29.8401H21.3401V34.1101H25.6001V29.8401Z" fill="#9AD2D6"/>
    <path d="M25.6001 25.5701H21.3401V29.8301H25.6001V25.5701Z" fill="#9AD2D6"/>
    <path d="M25.6001 21.3101H21.3401V25.5701H25.6001V21.3101Z" fill="#9AD2D6"/>
    <path d="M25.6001 17.05H21.3401V21.31H25.6001V17.05Z" fill="#9AD2D6"/>
    <path d="M25.6001 12.79H21.3401V17.05H25.6001V12.79Z" fill="#9AD2D6"/>
    <path d="M25.6001 8.52002H21.3401V12.79H25.6001V8.52002Z" fill="#D1FDFD"/>
    <path d="M25.6001 4.26001H21.3401V8.52001H25.6001V4.26001Z" fill="#A2DFE3"/>
    <path d="M25.6001 0H21.3401V4.26H25.6001V0Z" fill="#A2DFE3"/>
    <path d="M21.3401 68.2H17.0801V72.46H21.3401V68.2Z" fill="#A2DFE3"/>
    <path d="M21.3401 63.9399H17.0801V68.1999H21.3401V63.9399Z" fill="#9AD2D6"/>
    <path d="M21.3401 59.6799H17.0801V63.9399H21.3401V59.6799Z" fill="#9AD2D6"/>
    <path d="M21.3401 55.4199H17.0801V59.6799H21.3401V55.4199Z" fill="#9AD2D6"/>
    <path d="M21.3401 51.1499H17.0801V55.4199H21.3401V51.1499Z" fill="#9AD2D6"/>
    <path d="M21.3401 46.8899H17.0801V51.1499H21.3401V46.8899Z" fill="#9AD2D6"/>
    <path d="M21.3401 42.6299H17.0801V46.8899H21.3401V42.6299Z" fill="#9AD2D6"/>
    <path d="M21.3401 38.3701H17.0801V42.6301H21.3401V38.3701Z" fill="#9AD2D6"/>
    <path d="M21.3401 34.1001H17.0801V38.3601H21.3401V34.1001Z" fill="#9AD2D6"/>
    <path d="M21.3401 29.8401H17.0801V34.1101H21.3401V29.8401Z" fill="#9AD2D6"/>
    <path d="M21.3401 25.5701H17.0801V29.8301H21.3401V25.5701Z" fill="#9AD2D6"/>
    <path d="M21.3401 21.3101H17.0801V25.5701H21.3401V21.3101Z" fill="#9AD2D6"/>
    <path d="M21.3401 17.05H17.0801V21.31H21.3401V17.05Z" fill="#9AD2D6"/>
    <path d="M21.3401 12.79H17.0801V17.05H21.3401V12.79Z" fill="#9AD2D6"/>
    <path d="M21.3401 8.52002H17.0801V12.79H21.3401V8.52002Z" fill="#D1FDFD"/>
    <path d="M21.3401 4.26001H17.0801V8.52001H21.3401V4.26001Z" fill="#A2DFE3"/>
    <path d="M17.0801 63.9399H12.8101V68.1999H17.0801V63.9399Z" fill="#A2DFE3"/>
    <path d="M17.0801 59.6799H12.8101V63.9399H17.0801V59.6799Z" fill="#9AD2D6"/>
    <path d="M17.0801 55.4199H12.8101V59.6799H17.0801V55.4199Z" fill="#9AD2D6"/>
    <path d="M17.0801 51.1499H12.8101V55.4199H17.0801V51.1499Z" fill="#9AD2D6"/>
    <path d="M17.0801 46.8899H12.8101V51.1499H17.0801V46.8899Z" fill="#9AD2D6"/>
    <path d="M17.0801 42.6299H12.8101V46.8899H17.0801V42.6299Z" fill="#9AD2D6"/>
    <path d="M17.0801 38.3701H12.8101V42.6301H17.0801V38.3701Z" fill="#9AD2D6"/>
    <path d="M17.0801 34.1001H12.8101V38.3601H17.0801V34.1001Z" fill="#9AD2D6"/>
    <path d="M17.0801 29.8401H12.8101V34.1101H17.0801V29.8401Z" fill="#9AD2D6"/>
    <path d="M17.0801 25.5701H12.8101V29.8301H17.0801V25.5701Z" fill="#D1FDFD"/>
    <path d="M17.0801 21.3101H12.8101V25.5701H17.0801V21.3101Z" fill="#9AD2D6"/>
    <path d="M17.0801 17.05H12.8101V21.31H17.0801V17.05Z" fill="#9AD2D6"/>
    <path d="M17.0801 12.79H12.8101V17.05H17.0801V12.79Z" fill="#D1FDFD"/>
    <path d="M17.0801 8.52002H12.8101V12.79H17.0801V8.52002Z" fill="#A2DFE3"/>
    <path d="M12.81 59.6799H8.55005V63.9399H12.81V59.6799Z" fill="#A2DFE3"/>
    <path d="M12.81 55.4199H8.55005V59.6799H12.81V55.4199Z" fill="#9AD2D6"/>
    <path d="M12.81 51.1499H8.55005V55.4199H12.81V51.1499Z" fill="#9AD2D6"/>
    <path d="M12.81 46.8899H8.55005V51.1499H12.81V46.8899Z" fill="#9AD2D6"/>
    <path d="M12.81 42.6299H8.55005V46.8899H12.81V42.6299Z" fill="#9AD2D6"/>
    <path d="M12.81 38.3701H8.55005V42.6301H12.81V38.3701Z" fill="#9AD2D6"/>
    <path d="M12.81 34.1001H8.55005V38.3601H12.81V34.1001Z" fill="#D1FDFD"/>
    <path d="M12.81 29.8401H8.55005V34.1101H12.81V29.8401Z" fill="#D1FDFD"/>
    <path d="M12.81 25.5701H8.55005V29.8301H12.81V25.5701Z" fill="#9AD2D6"/>
    <path d="M12.81 21.3101H8.55005V25.5701H12.81V21.3101Z" fill="#9AD2D6"/>
    <path d="M12.81 17.05H8.55005V21.31H12.81V17.05Z" fill="#D1FDFD"/>
    <path d="M12.81 12.79H8.55005V17.05H12.81V12.79Z" fill="#A2DFE3"/>
    <path d="M8.55004 55.4199H4.29004V59.6799H8.55004V55.4199Z" fill="#A2DFE3"/>
    <path d="M8.55004 51.1499H4.29004V55.4199H8.55004V51.1499Z" fill="#A2DFE3"/>
    <path d="M8.55004 46.8899H4.29004V51.1499H8.55004V46.8899Z" fill="#A2DFE3"/>
    <path d="M8.55004 42.6299H4.29004V46.8899H8.55004V42.6299Z" fill="#A2DFE3"/>
    <path d="M8.55004 38.3701H4.29004V42.6301H8.55004V38.3701Z" fill="#A2DFE3"/>
    <path d="M8.55004 34.1001H4.29004V38.3601H8.55004V34.1001Z" fill="#A2DFE3"/>
    <path d="M8.55004 29.8401H4.29004V34.1101H8.55004V29.8401Z" fill="#A2DFE3"/>
    <path d="M8.55004 25.5701H4.29004V29.8301H8.55004V25.5701Z" fill="#A2DFE3"/>
    <path d="M8.55004 21.3101H4.29004V25.5701H8.55004V21.3101Z" fill="#A2DFE3"/>
    <path d="M8.55004 17.05H4.29004V21.31H8.55004V17.05Z" fill="#A2DFE3"/>
    <path d="M4.29003 51.1499H0.0300293V55.4199H4.29003V51.1499Z" fill="#A2DFE3"/>
    <path d="M4.29003 46.8899H0.0300293V51.1499H4.29003V46.8899Z" fill="#A2DFE3"/>
    <path d="M4.29003 42.6299H0.0300293V46.8899H4.29003V42.6299Z" fill="#A2DFE3"/>
    <path d="M4.29003 38.3701H0.0300293V42.6301H4.29003V38.3701Z" fill="#A2DFE3"/>
    <path d="M4.29003 34.1001H0.0300293V38.3601H4.29003V34.1001Z" fill="#A2DFE3"/>
    <path d="M4.29003 29.8401H0.0300293V34.1101H4.29003V29.8401Z" fill="#A2DFE3"/>
    <path d="M4.29003 25.5701H0.0300293V29.8301H4.29003V25.5701Z" fill="#A2DFE3"/>
    <path d="M4.29003 21.3101H0.0300293V25.5701H4.29003V21.3101Z" fill="#A2DFE3"/>
    <path
      d="M38.6401 42.9036H36.1105V45.582H22.7929V43.0524H20.1145V32.3388H22.6441V29.6976H25.3225V27.0564H35.9989V29.6232H28.1497V32.2644H25.4341V34.8684H35.9989V37.5468H38.6401V42.9036ZM33.3205 42.9036V37.6584H25.4341V42.9036H33.3205ZM59.0928 40.2624H56.5632V42.9036H53.922V45.582H45.8868V43.0524H43.2456V40.374H40.5672V32.3388H43.0968V29.6976H45.7752V27.0564H53.7732V29.586H56.4516V32.2272H59.0928V40.2624ZM53.7732 42.9036V32.2272H51.132V29.6976H45.8868V40.374H48.5652V42.9036H53.7732Z"
      fill="white"/>
  </g>
  <defs>
    <clipPath id="clip0_6156_8089">
      <rect width="80.98" height="85.25" fill="white" transform="translate(0.0300293)"/>
    </clipPath>
  </defs>
</svg>
