<svg width="82" height="86" viewBox="0 0 82 86" fill="none" xmlns="http://www.w3.org/2000/svg">
  <g clip-path="url(#clip0_6156_8717)">
    <path d="M5.24999 55.4199H0.98999V59.6799H5.24999V55.4199Z" fill="#996629"/>
    <path d="M9.51 59.6799H5.25V63.9399H9.51V59.6799Z" fill="#996629"/>
    <path d="M13.77 63.9399H9.51001V68.1999H13.77V63.9399Z" fill="#996629"/>
    <path d="M18.04 68.2H13.77V72.46H18.04V68.2Z" fill="#996629"/>
    <path d="M22.3 72.46H18.04V76.73H22.3V72.46Z" fill="#996629"/>
    <path d="M26.56 76.73H22.3V80.99H26.56V76.73Z" fill="#996629"/>
    <path d="M81.97 55.4199H77.71V59.6799H81.97V55.4199Z" fill="#996629"/>
    <path d="M81.97 51.1499H77.71V55.4199H81.97V51.1499Z" fill="#996629"/>
    <path d="M81.97 46.8899H77.71V51.1499H81.97V46.8899Z" fill="#996629"/>
    <path d="M81.97 42.6299H77.71V46.8899H81.97V42.6299Z" fill="#996629"/>
    <path d="M81.97 38.3701H77.71V42.6301H81.97V38.3701Z" fill="#996629"/>
    <path d="M81.97 34.1001H77.71V38.3601H81.97V34.1001Z" fill="#996629"/>
    <path d="M81.97 29.8401H77.71V34.1101H81.97V29.8401Z" fill="#996629"/>
    <path d="M81.97 25.5701H77.71V29.8301H81.97V25.5701Z" fill="#996629"/>
    <path d="M81.97 21.3101H77.71V25.5701H81.97V21.3101Z" fill="#996629"/>
    <path d="M77.71 59.6799H73.45V63.9399H77.71V59.6799Z" fill="#996629"/>
    <path d="M77.71 55.4199H73.45V59.6799H77.71V55.4199Z" fill="#996629"/>
    <path d="M77.71 51.1499H73.45V55.4199H77.71V51.1499Z" fill="#996629"/>
    <path d="M77.71 46.8899H73.45V51.1499H77.71V46.8899Z" fill="#996629"/>
    <path d="M77.71 42.6299H73.45V46.8899H77.71V42.6299Z" fill="#996629"/>
    <path d="M77.71 38.3701H73.45V42.6301H77.71V38.3701Z" fill="#996629"/>
    <path d="M77.71 34.1001H73.45V38.3601H77.71V34.1001Z" fill="#996629"/>
    <path d="M77.71 29.8401H73.45V34.1101H77.71V29.8401Z" fill="#996629"/>
    <path d="M77.71 25.5701H73.45V29.8301H77.71V25.5701Z" fill="#996629"/>
    <path d="M77.71 21.3101H73.45V25.5701H77.71V21.3101Z" fill="#996629"/>
    <path d="M77.71 17.05H73.45V21.31H77.71V17.05Z" fill="#996629"/>
    <path d="M73.4499 63.9399H69.1899V68.1999H73.4499V63.9399Z" fill="#996629"/>
    <path d="M73.4499 59.6799H69.1899V63.9399H73.4499V59.6799Z" fill="#996629"/>
    <path d="M73.4499 55.4199H69.1899V59.6799H73.4499V55.4199Z" fill="#996629"/>
    <path d="M73.4499 51.1499H69.1899V55.4199H73.4499V51.1499Z" fill="#C98D34"/>
    <path d="M73.4499 46.8899H69.1899V51.1499H73.4499V46.8899Z" fill="#C98D34"/>
    <path d="M73.4499 42.6299H69.1899V46.8899H73.4499V42.6299Z" fill="#C98D34"/>
    <path d="M73.4499 38.3701H69.1899V42.6301H73.4499V38.3701Z" fill="#C98D34"/>
    <path d="M73.4499 34.1001H69.1899V38.3601H73.4499V34.1001Z" fill="#C98D34"/>
    <path d="M73.4499 29.8401H69.1899V34.1101H73.4499V29.8401Z" fill="#C98D34"/>
    <path d="M73.4499 25.5701H69.1899V29.8301H73.4499V25.5701Z" fill="#C98D34"/>
    <path d="M73.4499 21.3101H69.1899V25.5701H73.4499V21.3101Z" fill="#C98D34"/>
    <path d="M73.4499 17.05H69.1899V21.31H73.4499V17.05Z" fill="#996629"/>
    <path d="M73.4499 12.79H69.1899V17.05H73.4499V12.79Z" fill="#996629"/>
    <path d="M69.1899 72.46H64.9299V76.73H69.1899V72.46Z" fill="#996629"/>
    <path d="M69.1899 68.2H64.9299V72.46H69.1899V68.2Z" fill="#996629"/>
    <path d="M69.1899 63.9399H64.9299V68.1999H69.1899V63.9399Z" fill="#996629"/>
    <path d="M69.1899 59.6799H64.9299V63.9399H69.1899V59.6799Z" fill="#996629"/>
    <path d="M69.1899 55.4199H64.9299V59.6799H69.1899V55.4199Z" fill="#C98D34"/>
    <path d="M69.1899 51.1499H64.9299V55.4199H69.1899V51.1499Z" fill="#CF9D3C"/>
    <path d="M69.1899 46.8899H64.9299V51.1499H69.1899V46.8899Z" fill="#CF9D3C"/>
    <path d="M69.1899 42.6299H64.9299V46.8899H69.1899V42.6299Z" fill="#CF9D3C"/>
    <path d="M69.1899 38.3701H64.9299V42.6301H69.1899V38.3701Z" fill="#CF9D3C"/>
    <path d="M69.1899 34.1001H64.9299V38.3601H69.1899V34.1001Z" fill="#CF9D3C"/>
    <path d="M69.1899 29.8401H64.9299V34.1101H69.1899V29.8401Z" fill="#CF9D3C"/>
    <path d="M69.1899 25.5701H64.9299V29.8301H69.1899V25.5701Z" fill="#CF9D3C"/>
    <path d="M69.1899 21.3101H64.9299V25.5701H69.1899V21.3101Z" fill="#CF9D3C"/>
    <path d="M69.1899 17.05H64.9299V21.31H69.1899V17.05Z" fill="#C98D34"/>
    <path d="M69.1899 12.79H64.9299V17.05H69.1899V12.79Z" fill="#996629"/>
    <path d="M69.1899 8.52002H64.9299V12.79H69.1899V8.52002Z" fill="#996629"/>
    <path d="M64.9299 76.73H60.6699V80.99H64.9299V76.73Z" fill="#996629"/>
    <path d="M64.9299 72.46H60.6699V76.73H64.9299V72.46Z" fill="#996629"/>
    <path d="M64.9299 68.2H60.6699V72.46H64.9299V68.2Z" fill="#996629"/>
    <path d="M64.9299 63.9399H60.6699V68.1999H64.9299V63.9399Z" fill="#996629"/>
    <path d="M64.9299 59.6799H60.6699V63.9399H64.9299V59.6799Z" fill="#C98D34"/>
    <path d="M64.9299 55.4199H60.6699V59.6799H64.9299V55.4199Z" fill="#D98727"/>
    <path d="M64.9299 51.1499H60.6699V55.4199H64.9299V51.1499Z" fill="#D98727"/>
    <path d="M64.9299 46.8899H60.6699V51.1499H64.9299V46.8899Z" fill="#D98727"/>
    <path d="M64.9299 42.6299H60.6699V46.8899H64.9299V42.6299Z" fill="#CF9D3C"/>
    <path d="M64.9299 38.3701H60.6699V42.6301H64.9299V38.3701Z" fill="#CF9D3C"/>
    <path d="M64.9299 34.1001H60.6699V38.3601H64.9299V34.1001Z" fill="#CF9D3C"/>
    <path d="M64.9299 29.8401H60.6699V34.1101H64.9299V29.8401Z" fill="#CF9D3C"/>
    <path d="M64.9299 25.5701H60.6699V29.8301H64.9299V25.5701Z" fill="#CF9D3C"/>
    <path d="M64.9299 21.3101H60.6699V25.5701H64.9299V21.3101Z" fill="#CF9D3C"/>
    <path d="M64.9299 17.05H60.6699V21.31H64.9299V17.05Z" fill="#CF9D3C"/>
    <path d="M64.9299 12.79H60.6699V17.05H64.9299V12.79Z" fill="#C98D34"/>
    <path d="M64.9299 8.52002H60.6699V12.79H64.9299V8.52002Z" fill="#996629"/>
    <path d="M60.6699 80.99H56.3999V85.25H60.6699V80.99Z" fill="#996629"/>
    <path d="M60.6699 76.73H56.3999V80.99H60.6699V76.73Z" fill="#996629"/>
    <path d="M60.6699 72.46H56.3999V76.73H60.6699V72.46Z" fill="#996629"/>
    <path d="M60.6699 68.2H56.3999V72.46H60.6699V68.2Z" fill="#996629"/>
    <path d="M60.6699 63.9399H56.3999V68.1999H60.6699V63.9399Z" fill="#C98D34"/>
    <path d="M60.6699 59.6799H56.3999V63.9399H60.6699V59.6799Z" fill="#D98727"/>
    <path d="M60.6699 55.4199H56.3999V59.6799H60.6699V55.4199Z" fill="#CF9D3C"/>
    <path d="M60.6699 51.1499H56.3999V55.4199H60.6699V51.1499Z" fill="#CF9D3C"/>
    <path d="M60.6699 46.8899H56.3999V51.1499H60.6699V46.8899Z" fill="#CF9D3C"/>
    <path d="M60.6699 42.6299H56.3999V46.8899H60.6699V42.6299Z" fill="#CF9D3C"/>
    <path d="M60.6699 38.3701H56.3999V42.6301H60.6699V38.3701Z" fill="#CF9D3C"/>
    <path d="M60.6699 34.1001H56.3999V38.3601H60.6699V34.1001Z" fill="#CF9D3C"/>
    <path d="M60.6699 29.8401H56.3999V34.1101H60.6699V29.8401Z" fill="#CF9D3C"/>
    <path d="M60.6699 25.5701H56.3999V29.8301H60.6699V25.5701Z" fill="#CF9D3C"/>
    <path d="M60.6699 21.3101H56.3999V25.5701H60.6699V21.3101Z" fill="#CF9D3C"/>
    <path d="M60.6699 17.05H56.3999V21.31H60.6699V17.05Z" fill="#CF9D3C"/>
    <path d="M60.6699 12.79H56.3999V17.05H60.6699V12.79Z" fill="#CF9D3C"/>
    <path d="M60.6699 8.52002H56.3999V12.79H60.6699V8.52002Z" fill="#996629"/>
    <path d="M60.6699 4.26001H56.3999V8.52001H60.6699V4.26001Z" fill="#996629"/>
    <path d="M56.3999 80.99H52.1399V85.25H56.3999V80.99Z" fill="#996629"/>
    <path d="M56.3999 76.73H52.1399V80.99H56.3999V76.73Z" fill="#996629"/>
    <path d="M56.3999 72.46H52.1399V76.73H56.3999V72.46Z" fill="#996629"/>
    <path d="M56.3999 68.2H52.1399V72.46H56.3999V68.2Z" fill="#C98D34"/>
    <path d="M56.3999 63.9399H52.1399V68.1999H56.3999V63.9399Z" fill="#D98727"/>
    <path d="M56.3999 59.6799H52.1399V63.9399H56.3999V59.6799Z" fill="#D98727"/>
    <path d="M56.3999 55.4199H52.1399V59.6799H56.3999V55.4199Z" fill="#CF9D3C"/>
    <path d="M56.3999 51.1499H52.1399V55.4199H56.3999V51.1499Z" fill="#CF9D3C"/>
    <path d="M56.3999 46.8899H52.1399V51.1499H56.3999V46.8899Z" fill="#CF9D3C"/>
    <path d="M56.3999 42.6299H52.1399V46.8899H56.3999V42.6299Z" fill="#CF9D3C"/>
    <path d="M56.3999 38.3701H52.1399V42.6301H56.3999V38.3701Z" fill="#CF9D3C"/>
    <path d="M56.3999 34.1001H52.1399V38.3601H56.3999V34.1001Z" fill="#CF9D3C"/>
    <path d="M56.3999 29.8401H52.1399V34.1101H56.3999V29.8401Z" fill="#CF9D3C"/>
    <path d="M56.3999 25.5701H52.1399V29.8301H56.3999V25.5701Z" fill="#CF9D3C"/>
    <path d="M56.3999 21.3101H52.1399V25.5701H56.3999V21.3101Z" fill="#CF9D3C"/>
    <path d="M56.3999 17.05H52.1399V21.31H56.3999V17.05Z" fill="#CF9D3C"/>
    <path d="M56.3999 12.79H52.1399V17.05H56.3999V12.79Z" fill="#CF9D3C"/>
    <path d="M56.3999 8.52002H52.1399V12.79H56.3999V8.52002Z" fill="#CF9D3C"/>
    <path d="M56.3999 4.26001H52.1399V8.52001H56.3999V4.26001Z" fill="#996629"/>
    <path d="M56.3999 0H52.1399V4.26H56.3999V0Z" fill="#996629"/>
    <path d="M52.1399 80.99H47.8799V85.25H52.1399V80.99Z" fill="#996629"/>
    <path d="M52.1399 76.73H47.8799V80.99H52.1399V76.73Z" fill="#996629"/>
    <path d="M52.1399 72.46H47.8799V76.73H52.1399V72.46Z" fill="#C98D34"/>
    <path d="M52.1399 68.2H47.8799V72.46H52.1399V68.2Z" fill="#C98D34"/>
    <path d="M52.1399 63.9399H47.8799V68.1999H52.1399V63.9399Z" fill="#CF9D3C"/>
    <path d="M52.1399 59.6799H47.8799V63.9399H52.1399V59.6799Z" fill="#CF9D3C"/>
    <path d="M52.1399 55.4199H47.8799V59.6799H52.1399V55.4199Z" fill="#CF9D3C"/>
    <path d="M52.1399 51.1499H47.8799V55.4199H52.1399V51.1499Z" fill="#CF9D3C"/>
    <path d="M52.1399 46.8899H47.8799V51.1499H52.1399V46.8899Z" fill="#CF9D3C"/>
    <path d="M52.1399 42.6299H47.8799V46.8899H52.1399V42.6299Z" fill="#CF9D3C"/>
    <path d="M52.1399 38.3701H47.8799V42.6301H52.1399V38.3701Z" fill="#CF9D3C"/>
    <path d="M52.1399 34.1001H47.8799V38.3601H52.1399V34.1001Z" fill="#CF9D3C"/>
    <path d="M52.1399 29.8401H47.8799V34.1101H52.1399V29.8401Z" fill="#CF9D3C"/>
    <path d="M52.1399 25.5701H47.8799V29.8301H52.1399V25.5701Z" fill="#CF9D3C"/>
    <path d="M52.1399 21.3101H47.8799V25.5701H52.1399V21.3101Z" fill="#CF9D3C"/>
    <path d="M52.1399 17.05H47.8799V21.31H52.1399V17.05Z" fill="#CF9D3C"/>
    <path d="M52.1399 12.79H47.8799V17.05H52.1399V12.79Z" fill="#CF9D3C"/>
    <path d="M52.1399 8.52002H47.8799V12.79H52.1399V8.52002Z" fill="#CF9D3C"/>
    <path d="M52.1399 4.26001H47.8799V8.52001H52.1399V4.26001Z" fill="#C98D34"/>
    <path d="M52.1399 0H47.8799V4.26H52.1399V0Z" fill="#C98D34"/>
    <path d="M47.8799 80.99H43.6199V85.25H47.8799V80.99Z" fill="#996629"/>
    <path d="M47.8799 76.73H43.6199V80.99H47.8799V76.73Z" fill="#996629"/>
    <path d="M47.8799 72.46H43.6199V76.73H47.8799V72.46Z" fill="#C98D34"/>
    <path d="M47.8799 68.2H43.6199V72.46H47.8799V68.2Z" fill="#C98D34"/>
    <path d="M47.8799 63.9399H43.6199V68.1999H47.8799V63.9399Z" fill="#CF9D3C"/>
    <path d="M47.8799 59.6799H43.6199V63.9399H47.8799V59.6799Z" fill="#CF9D3C"/>
    <path d="M47.8799 55.4199H43.6199V59.6799H47.8799V55.4199Z" fill="#CF9D3C"/>
    <path d="M47.8799 51.1499H43.6199V55.4199H47.8799V51.1499Z" fill="#CF9D3C"/>
    <path d="M47.8799 46.8899H43.6199V51.1499H47.8799V46.8899Z" fill="#CF9D3C"/>
    <path d="M47.8799 42.6299H43.6199V46.8899H47.8799V42.6299Z" fill="#CF9D3C"/>
    <path d="M47.8799 38.3701H43.6199V42.6301H47.8799V38.3701Z" fill="#CF9D3C"/>
    <path d="M47.8799 34.1001H43.6199V38.3601H47.8799V34.1001Z" fill="#CF9D3C"/>
    <path d="M47.8799 29.8401H43.6199V34.1101H47.8799V29.8401Z" fill="#CF9D3C"/>
    <path d="M47.8799 25.5701H43.6199V29.8301H47.8799V25.5701Z" fill="#CF9D3C"/>
    <path d="M47.8799 21.3101H43.6199V25.5701H47.8799V21.3101Z" fill="#CF9D3C"/>
    <path d="M47.8799 17.05H43.6199V21.31H47.8799V17.05Z" fill="#CF9D3C"/>
    <path d="M47.8799 12.79H43.6199V17.05H47.8799V12.79Z" fill="#CF9D3C"/>
    <path d="M47.8799 8.52002H43.6199V12.79H47.8799V8.52002Z" fill="#CF9D3C"/>
    <path d="M47.8799 4.26001H43.6199V8.52001H47.8799V4.26001Z" fill="#C98D34"/>
    <path d="M47.8799 0H43.6199V4.26H47.8799V0Z" fill="#C98D34"/>
    <path d="M43.6201 80.99H39.3601V85.25H43.6201V80.99Z" fill="#996629"/>
    <path d="M43.6201 76.73H39.3601V80.99H43.6201V76.73Z" fill="#996629"/>
    <path d="M43.6201 72.46H39.3601V76.73H43.6201V72.46Z" fill="#C98D34"/>
    <path d="M43.6201 68.2H39.3601V72.46H43.6201V68.2Z" fill="#C98D34"/>
    <path d="M43.6201 63.9399H39.3601V68.1999H43.6201V63.9399Z" fill="#CF9D3C"/>
    <path d="M43.6201 59.6799H39.3601V63.9399H43.6201V59.6799Z" fill="#CF9D3C"/>
    <path d="M43.6201 55.4199H39.3601V59.6799H43.6201V55.4199Z" fill="#CF9D3C"/>
    <path d="M43.6201 51.1499H39.3601V55.4199H43.6201V51.1499Z" fill="#CF9D3C"/>
    <path d="M43.6201 46.8899H39.3601V51.1499H43.6201V46.8899Z" fill="#CF9D3C"/>
    <path d="M43.6201 42.6299H39.3601V46.8899H43.6201V42.6299Z" fill="#CF9D3C"/>
    <path d="M43.6201 38.3701H39.3601V42.6301H43.6201V38.3701Z" fill="#CF9D3C"/>
    <path d="M43.6201 34.1001H39.3601V38.3601H43.6201V34.1001Z" fill="#CF9D3C"/>
    <path d="M43.6201 29.8401H39.3601V34.1101H43.6201V29.8401Z" fill="#CF9D3C"/>
    <path d="M43.6201 25.5701H39.3601V29.8301H43.6201V25.5701Z" fill="#CF9D3C"/>
    <path d="M43.6201 21.3101H39.3601V25.5701H43.6201V21.3101Z" fill="#CF9D3C"/>
    <path d="M43.6201 17.05H39.3601V21.31H43.6201V17.05Z" fill="#CF9D3C"/>
    <path d="M43.6201 12.79H39.3601V17.05H43.6201V12.79Z" fill="#CF9D3C"/>
    <path d="M43.6201 8.52002H39.3601V12.79H43.6201V8.52002Z" fill="#CF9D3C"/>
    <path d="M43.6201 4.26001H39.3601V8.52001H43.6201V4.26001Z" fill="#C98D34"/>
    <path d="M43.6201 0H39.3601V4.26H43.6201V0Z" fill="#C98D34"/>
    <path d="M39.3601 80.99H35.0901V85.25H39.3601V80.99Z" fill="#996629"/>
    <path d="M39.3601 76.73H35.0901V80.99H39.3601V76.73Z" fill="#996629"/>
    <path d="M39.3601 72.46H35.0901V76.73H39.3601V72.46Z" fill="#C98D34"/>
    <path d="M39.3601 68.2H35.0901V72.46H39.3601V68.2Z" fill="#C98D34"/>
    <path d="M39.3601 63.9399H35.0901V68.1999H39.3601V63.9399Z" fill="#CF9D3C"/>
    <path d="M39.3601 59.6799H35.0901V63.9399H39.3601V59.6799Z" fill="#CF9D3C"/>
    <path d="M39.3601 55.4199H35.0901V59.6799H39.3601V55.4199Z" fill="#CF9D3C"/>
    <path d="M39.3601 51.1499H35.0901V55.4199H39.3601V51.1499Z" fill="#CF9D3C"/>
    <path d="M39.3601 46.8899H35.0901V51.1499H39.3601V46.8899Z" fill="#CF9D3C"/>
    <path d="M39.3601 42.6299H35.0901V46.8899H39.3601V42.6299Z" fill="#CF9D3C"/>
    <path d="M39.3601 38.3701H35.0901V42.6301H39.3601V38.3701Z" fill="#CF9D3C"/>
    <path d="M39.3601 34.1001H35.0901V38.3601H39.3601V34.1001Z" fill="#CF9D3C"/>
    <path d="M39.3601 29.8401H35.0901V34.1101H39.3601V29.8401Z" fill="#CF9D3C"/>
    <path d="M39.3601 25.5701H35.0901V29.8301H39.3601V25.5701Z" fill="#CF9D3C"/>
    <path d="M39.3601 21.3101H35.0901V25.5701H39.3601V21.3101Z" fill="#CF9D3C"/>
    <path d="M39.3601 17.05H35.0901V21.31H39.3601V17.05Z" fill="#CF9D3C"/>
    <path d="M39.3601 12.79H35.0901V17.05H39.3601V12.79Z" fill="#CF9D3C"/>
    <path d="M39.3601 8.52002H35.0901V12.79H39.3601V8.52002Z" fill="#CF9D3C"/>
    <path d="M39.3601 4.26001H35.0901V8.52001H39.3601V4.26001Z" fill="#C98D34"/>
    <path d="M39.3601 0H35.0901V4.26H39.3601V0Z" fill="#C98D34"/>
    <path d="M35.0901 80.99H30.8301V85.25H35.0901V80.99Z" fill="#996629"/>
    <path d="M35.0901 76.73H30.8301V80.99H35.0901V76.73Z" fill="#996629"/>
    <path d="M35.0901 72.46H30.8301V76.73H35.0901V72.46Z" fill="#C98D34"/>
    <path d="M35.0901 68.2H30.8301V72.46H35.0901V68.2Z" fill="#C98D34"/>
    <path d="M35.0901 63.9399H30.8301V68.1999H35.0901V63.9399Z" fill="#CF9D3C"/>
    <path d="M35.0901 59.6799H30.8301V63.9399H35.0901V59.6799Z" fill="#CF9D3C"/>
    <path d="M35.0901 55.4199H30.8301V59.6799H35.0901V55.4199Z" fill="#CF9D3C"/>
    <path d="M35.0901 51.1499H30.8301V55.4199H35.0901V51.1499Z" fill="#CF9D3C"/>
    <path d="M35.0901 46.8899H30.8301V51.1499H35.0901V46.8899Z" fill="#CF9D3C"/>
    <path d="M35.0901 42.6299H30.8301V46.8899H35.0901V42.6299Z" fill="#CF9D3C"/>
    <path d="M35.0901 38.3701H30.8301V42.6301H35.0901V38.3701Z" fill="#CF9D3C"/>
    <path d="M35.0901 34.1001H30.8301V38.3601H35.0901V34.1001Z" fill="#CF9D3C"/>
    <path d="M35.0901 29.8401H30.8301V34.1101H35.0901V29.8401Z" fill="#CF9D3C"/>
    <path d="M35.0901 25.5701H30.8301V29.8301H35.0901V25.5701Z" fill="#CF9D3C"/>
    <path d="M35.0901 21.3101H30.8301V25.5701H35.0901V21.3101Z" fill="#CF9D3C"/>
    <path d="M35.0901 17.05H30.8301V21.31H35.0901V17.05Z" fill="#CF9D3C"/>
    <path d="M35.0901 12.79H30.8301V17.05H35.0901V12.79Z" fill="#CF9D3C"/>
    <path d="M35.0901 8.52002H30.8301V12.79H35.0901V8.52002Z" fill="#CF9D3C"/>
    <path d="M35.0901 4.26001H30.8301V8.52001H35.0901V4.26001Z" fill="#C98D34"/>
    <path d="M35.0901 0H30.8301V4.26H35.0901V0Z" fill="#C98D34"/>
    <path d="M30.8201 80.99H26.5601V85.25H30.8201V80.99Z" fill="#996629"/>
    <path d="M30.8201 76.73H26.5601V80.99H30.8201V76.73Z" fill="#996629"/>
    <path d="M30.8201 72.46H26.5601V76.73H30.8201V72.46Z" fill="#C98D34"/>
    <path d="M30.8201 68.2H26.5601V72.46H30.8201V68.2Z" fill="#C98D34"/>
    <path d="M30.8201 63.9399H26.5601V68.1999H30.8201V63.9399Z" fill="#CF9D3C"/>
    <path d="M30.8201 59.6799H26.5601V63.9399H30.8201V59.6799Z" fill="#CF9D3C"/>
    <path d="M30.8201 55.4199H26.5601V59.6799H30.8201V55.4199Z" fill="#CF9D3C"/>
    <path d="M30.8201 51.1499H26.5601V55.4199H30.8201V51.1499Z" fill="#CF9D3C"/>
    <path d="M30.8201 46.8899H26.5601V51.1499H30.8201V46.8899Z" fill="#CF9D3C"/>
    <path d="M30.8201 42.6299H26.5601V46.8899H30.8201V42.6299Z" fill="#CF9D3C"/>
    <path d="M30.8201 38.3701H26.5601V42.6301H30.8201V38.3701Z" fill="#CF9D3C"/>
    <path d="M30.8201 34.1001H26.5601V38.3601H30.8201V34.1001Z" fill="#CF9D3C"/>
    <path d="M30.8201 29.8401H26.5601V34.1101H30.8201V29.8401Z" fill="#CF9D3C"/>
    <path d="M30.8201 25.5701H26.5601V29.8301H30.8201V25.5701Z" fill="#CF9D3C"/>
    <path d="M30.8201 21.3101H26.5601V25.5701H30.8201V21.3101Z" fill="#CF9D3C"/>
    <path d="M30.8201 17.05H26.5601V21.31H30.8201V17.05Z" fill="#CF9D3C"/>
    <path d="M30.8201 12.79H26.5601V17.05H30.8201V12.79Z" fill="#CF9D3C"/>
    <path d="M30.8201 8.52002H26.5601V12.79H30.8201V8.52002Z" fill="#E7AA72"/>
    <path d="M30.8201 4.26001H26.5601V8.52001H30.8201V4.26001Z" fill="#C98D34"/>
    <path d="M30.8201 0H26.5601V4.26H30.8201V0Z" fill="#C98D34"/>
    <path d="M26.56 72.46H22.3V76.73H26.56V72.46Z" fill="#C98D34"/>
    <path d="M26.56 68.2H22.3V72.46H26.56V68.2Z" fill="#C98D34"/>
    <path d="M26.56 63.9399H22.3V68.1999H26.56V63.9399Z" fill="#CF9D3C"/>
    <path d="M26.56 59.6799H22.3V63.9399H26.56V59.6799Z" fill="#CF9D3C"/>
    <path d="M26.56 55.4199H22.3V59.6799H26.56V55.4199Z" fill="#CF9D3C"/>
    <path d="M26.56 51.1499H22.3V55.4199H26.56V51.1499Z" fill="#CF9D3C"/>
    <path d="M26.56 46.8899H22.3V51.1499H26.56V46.8899Z" fill="#CF9D3C"/>
    <path d="M26.56 42.6299H22.3V46.8899H26.56V42.6299Z" fill="#CF9D3C"/>
    <path d="M26.56 38.3701H22.3V42.6301H26.56V38.3701Z" fill="#CF9D3C"/>
    <path d="M26.56 34.1001H22.3V38.3601H26.56V34.1001Z" fill="#CF9D3C"/>
    <path d="M26.56 29.8401H22.3V34.1101H26.56V29.8401Z" fill="#CF9D3C"/>
    <path d="M26.56 25.5701H22.3V29.8301H26.56V25.5701Z" fill="#CF9D3C"/>
    <path d="M26.56 21.3101H22.3V25.5701H26.56V21.3101Z" fill="#CF9D3C"/>
    <path d="M26.56 17.05H22.3V21.31H26.56V17.05Z" fill="#CF9D3C"/>
    <path d="M26.56 12.79H22.3V17.05H26.56V12.79Z" fill="#CF9D3C"/>
    <path d="M26.56 8.52002H22.3V12.79H26.56V8.52002Z" fill="#E7AA72"/>
    <path d="M26.56 4.26001H22.3V8.52001H26.56V4.26001Z" fill="#C98D34"/>
    <path d="M26.56 0H22.3V4.26H26.56V0Z" fill="#C98D34"/>
    <path d="M22.3 68.2H18.04V72.46H22.3V68.2Z" fill="#C98D34"/>
    <path d="M22.3 63.9399H18.04V68.1999H22.3V63.9399Z" fill="#CF9D3C"/>
    <path d="M22.3 59.6799H18.04V63.9399H22.3V59.6799Z" fill="#CF9D3C"/>
    <path d="M22.3 55.4199H18.04V59.6799H22.3V55.4199Z" fill="#CF9D3C"/>
    <path d="M22.3 51.1499H18.04V55.4199H22.3V51.1499Z" fill="#CF9D3C"/>
    <path d="M22.3 46.8899H18.04V51.1499H22.3V46.8899Z" fill="#CF9D3C"/>
    <path d="M22.3 42.6299H18.04V46.8899H22.3V42.6299Z" fill="#CF9D3C"/>
    <path d="M22.3 38.3701H18.04V42.6301H22.3V38.3701Z" fill="#CF9D3C"/>
    <path d="M22.3 34.1001H18.04V38.3601H22.3V34.1001Z" fill="#CF9D3C"/>
    <path d="M22.3 29.8401H18.04V34.1101H22.3V29.8401Z" fill="#CF9D3C"/>
    <path d="M22.3 25.5701H18.04V29.8301H22.3V25.5701Z" fill="#CF9D3C"/>
    <path d="M22.3 21.3101H18.04V25.5701H22.3V21.3101Z" fill="#CF9D3C"/>
    <path d="M22.3 17.05H18.04V21.31H22.3V17.05Z" fill="#CF9D3C"/>
    <path d="M22.3 12.79H18.04V17.05H22.3V12.79Z" fill="#CF9D3C"/>
    <path d="M22.3 8.52002H18.04V12.79H22.3V8.52002Z" fill="#E7AA72"/>
    <path d="M22.3 4.26001H18.04V8.52001H22.3V4.26001Z" fill="#C98D34"/>
    <path d="M18.04 63.9399H13.77V68.1999H18.04V63.9399Z" fill="#C98D34"/>
    <path d="M18.04 59.6799H13.77V63.9399H18.04V59.6799Z" fill="#CF9D3C"/>
    <path d="M18.04 55.4199H13.77V59.6799H18.04V55.4199Z" fill="#CF9D3C"/>
    <path d="M18.04 51.1499H13.77V55.4199H18.04V51.1499Z" fill="#CF9D3C"/>
    <path d="M18.04 46.8899H13.77V51.1499H18.04V46.8899Z" fill="#CF9D3C"/>
    <path d="M18.04 42.6299H13.77V46.8899H18.04V42.6299Z" fill="#CF9D3C"/>
    <path d="M18.04 38.3701H13.77V42.6301H18.04V38.3701Z" fill="#CF9D3C"/>
    <path d="M18.04 34.1001H13.77V38.3601H18.04V34.1001Z" fill="#CF9D3C"/>
    <path d="M18.04 29.8401H13.77V34.1101H18.04V29.8401Z" fill="#CF9D3C"/>
    <path d="M18.04 25.5701H13.77V29.8301H18.04V25.5701Z" fill="#E7AA72"/>
    <path d="M18.04 21.3101H13.77V25.5701H18.04V21.3101Z" fill="#CF9D3C"/>
    <path d="M18.04 17.05H13.77V21.31H18.04V17.05Z" fill="#CF9D3C"/>
    <path d="M18.04 12.79H13.77V17.05H18.04V12.79Z" fill="#E7AA72"/>
    <path d="M18.04 8.52002H13.77V12.79H18.04V8.52002Z" fill="#C98D34"/>
    <path d="M13.77 59.6799H9.51001V63.9399H13.77V59.6799Z" fill="#C98D34"/>
    <path d="M13.77 55.4199H9.51001V59.6799H13.77V55.4199Z" fill="#CF9D3C"/>
    <path d="M13.77 51.1499H9.51001V55.4199H13.77V51.1499Z" fill="#CF9D3C"/>
    <path d="M13.77 46.8899H9.51001V51.1499H13.77V46.8899Z" fill="#CF9D3C"/>
    <path d="M13.77 42.6299H9.51001V46.8899H13.77V42.6299Z" fill="#CF9D3C"/>
    <path d="M13.77 38.3701H9.51001V42.6301H13.77V38.3701Z" fill="#CF9D3C"/>
    <path d="M13.77 34.1001H9.51001V38.3601H13.77V34.1001Z" fill="#E7AA72"/>
    <path d="M13.77 29.8401H9.51001V34.1101H13.77V29.8401Z" fill="#E7AA72"/>
    <path d="M13.77 25.5701H9.51001V29.8301H13.77V25.5701Z" fill="#CF9D3C"/>
    <path d="M13.77 21.3101H9.51001V25.5701H13.77V21.3101Z" fill="#CF9D3C"/>
    <path d="M13.77 17.05H9.51001V21.31H13.77V17.05Z" fill="#E7AA72"/>
    <path d="M13.77 12.79H9.51001V17.05H13.77V12.79Z" fill="#C98D34"/>
    <path d="M9.51 55.4199H5.25V59.6799H9.51V55.4199Z" fill="#C98D34"/>
    <path d="M9.51 51.1499H5.25V55.4199H9.51V51.1499Z" fill="#C98D34"/>
    <path d="M9.51 46.8899H5.25V51.1499H9.51V46.8899Z" fill="#C98D34"/>
    <path d="M9.51 42.6299H5.25V46.8899H9.51V42.6299Z" fill="#C98D34"/>
    <path d="M9.51 38.3701H5.25V42.6301H9.51V38.3701Z" fill="#C98D34"/>
    <path d="M9.51 34.1001H5.25V38.3601H9.51V34.1001Z" fill="#C98D34"/>
    <path d="M9.51 29.8401H5.25V34.1101H9.51V29.8401Z" fill="#C98D34"/>
    <path d="M9.51 25.5701H5.25V29.8301H9.51V25.5701Z" fill="#C98D34"/>
    <path d="M9.51 21.3101H5.25V25.5701H9.51V21.3101Z" fill="#C98D34"/>
    <path d="M9.51 17.05H5.25V21.31H9.51V17.05Z" fill="#C98D34"/>
    <path d="M5.24999 51.1499H0.98999V55.4199H5.24999V51.1499Z" fill="#C98D34"/>
    <path d="M5.24999 46.8899H0.98999V51.1499H5.24999V46.8899Z" fill="#C98D34"/>
    <path d="M5.24999 42.6299H0.98999V46.8899H5.24999V42.6299Z" fill="#C98D34"/>
    <path d="M5.24999 38.3701H0.98999V42.6301H5.24999V38.3701Z" fill="#C98D34"/>
    <path d="M5.24999 34.1001H0.98999V38.3601H5.24999V34.1001Z" fill="#C98D34"/>
    <path d="M5.24999 29.8401H0.98999V34.1101H5.24999V29.8401Z" fill="#C98D34"/>
    <path d="M5.24999 25.5701H0.98999V29.8301H5.24999V25.5701Z" fill="#C98D34"/>
    <path d="M5.24999 21.3101H0.98999V25.5701H5.24999V21.3101Z" fill="#C98D34"/>
    <path
      d="M39.6001 40.2624H37.0705V45.582H31.7137V40.374H21.0745V35.0172H23.6041V32.3388H26.2825V29.6976H28.9237V27.0564H36.9589V37.5468H39.6001V40.2624ZM31.6393 37.584V32.376H28.9237V35.0172H26.3941V37.584H31.6393ZM60.0528 40.2624H57.5232V42.9036H54.882V45.582H46.8468V43.0524H44.2056V40.374H41.5272V32.3388H44.0568V29.6976H46.7352V27.0564H54.7332V29.586H57.4116V32.2272H60.0528V40.2624ZM54.7332 42.9036V32.2272H52.092V29.6976H46.8468V40.374H49.5252V42.9036H54.7332Z"
      fill="white"/>
  </g>
  <defs>
    <clipPath id="clip0_6156_8717">
      <rect width="80.98" height="85.25" fill="white" transform="translate(0.98999)"/>
    </clipPath>
  </defs>
</svg>
